<svg xmlns="http://www.w3.org/2000/svg" fill-rule="evenodd" stroke-linejoin="round" stroke-miterlimit="2" clip-rule="evenodd" viewBox="0 0 150 150">
  <path fill="none" d="M0 0h150v150H0z"/>
  <path fill="#01cefe" d="M141.524 80.468l-5.985-1.919a2.497 2.497 0 01-1.616-1.636 38.73 38.73 0 00-5.657-11.192 41.66 41.66 0 00-3.779-4.45c.883-3.878 1.363-8.26 1.3-12.05-.088-5.415-1.171-8.59-3.31-9.71-1.15-.605-4.655-2.436-23.621 6.243-.45.204-.87.458-1.258.75a82.27 82.27 0 00-3.9-.945c-.159-.039-.322-.068-.482-.107a28.923 28.923 0 002.604-10.763 2.122 2.122 0 00-2.03-2.22 2.125 2.125 0 00-2.22 2.025 24.695 24.695 0 01-7.228 16.403 24.596 24.596 0 01-8.958 5.717 62.173 62.173 0 00-17.114 0 24.596 24.596 0 01-8.957-5.717c-4.679-4.676-7.255-10.9-7.255-17.513 0-6.614 2.576-12.838 7.255-17.513 4.678-4.685 10.898-7.257 17.515-7.257 6.615 0 12.835 2.572 17.514 7.257a24.769 24.769 0 014.616 6.37 2.127 2.127 0 003.8-1.91 28.99 28.99 0 00-5.41-7.47c-5.48-5.484-12.77-8.503-20.52-8.503-7.753 0-15.04 3.02-20.522 8.503-5.481 5.484-8.5 12.77-8.5 20.523s3.019 15.039 8.5 20.522a29.15 29.15 0 005.121 4.072h.001c-1.321.35-2.633.73-3.93 1.169a2.123 2.123 0 00-1.343 2.688 2.131 2.131 0 002.69 1.344c11.596-3.876 24.37-3.876 35.965 0 .223.078.451.107.674.107a2.125 2.125 0 00.674-4.14 61.493 61.493 0 00-3.932-1.168h.002a29.107 29.107 0 005.12-4.072 29.181 29.181 0 003.707-4.558c.586.117 1.167.234 1.741.36.764.166 1.524.351 2.277.536a5.576 5.576 0 00-.068.273c-1.037 4.919-.969 9.273.2 12.935 1.052 3.292 2.95 5.961 5.64 7.928 3.17 2.319 6.998 3.322 10.464 3.322 2.61 0 5.017-.565 6.784-1.568 1.998-1.13 3.673-3.517 4.998-7.1.613.72 1.193 1.45 1.74 2.2a34.34 34.34 0 015.037 9.955 6.755 6.755 0 004.374 4.412l5.984 1.92a3.767 3.767 0 012.626 3.593v9.926a3.758 3.758 0 01-2.626 3.594l-9.642 3.097a6.53 6.53 0 00-3.676 2.98c-3.788 6.546-9.743 11.962-17.702 16.101a3.329 3.329 0 00-1.748 2.348l-3.088 16.354a.96.96 0 01-.938.779H93.39a.96.96 0 01-.939-.78l-1.71-9.038a3.345 3.345 0 00-3.799-2.689 87.795 87.795 0 01-13.246.994c-3.321 0-6.6-.185-9.745-.555a3.363 3.363 0 00-3.684 2.707l-1.626 8.582a.96.96 0 01-.938.779H47.662a.962.962 0 01-.94-.79l-2.974-15.437a3.365 3.365 0 00-1.715-2.328C28.466 117.5 21.295 105.403 21.295 89.75c0-7.91 1.73-14.903 5.14-20.786 3.185-5.484 7.834-10.023 13.821-13.49a2.123 2.123 0 00.776-2.903 2.134 2.134 0 00-2.906-.78C26.519 58.515 19.517 68.868 17.59 82.028l-.614-.059a10.537 10.537 0 00-.78-4.237c-1.232-3.068-3.767-5.289-6.455-5.64-2.119-.282-4.135.614-5.534 2.465-2.028 2.678-1.697 4.802-1.063 6.107 1.07 2.211 3.824 3.77 8.392 4.753-.126.185-.264.37-.415.565-2.699 3.38-5.88 4.13-7.944 4.198C1.968 90.22 1 91.192 1 92.4v.01a2.22 2.22 0 002.133 2.22c.153.01.313.01.478.01 2.614 0 6.807-.954 10.835-6.01A12.005 12.005 0 0016 86.117c.401.05.787.088 1.156.127v-.01a56.542 56.542 0 00-.113 3.517c0 8.854 2.112 16.743 6.274 23.464 3.838 6.195 9.333 11.26 16.338 15.078l2.891 15.01a5.211 5.211 0 005.117 4.237h10.04c2.5 0 4.653-1.783 5.118-4.237l1.47-7.763c3.05.321 6.212.487 9.405.487 4.384 0 8.762-.302 13.029-.906l1.549 8.182a5.221 5.221 0 005.116 4.246h10.042c2.5 0 4.651-1.792 5.117-4.246l3.007-15.916c8.494-4.5 14.897-10.393 19.034-17.542a2.346 2.346 0 011.293-1.072l9.642-3.087a8.003 8.003 0 005.58-7.646v-9.926a8.003 8.003 0 00-5.58-7.646zM6.97 78.803c-.22-.448.3-1.247.629-1.686.521-.691 1.002-.827 1.366-.827.077 0 .148.01.214.01.977.136 2.347 1.207 3.073 3.019.17.419.393 1.12.444 1.997-2.942-.604-5.23-1.481-5.726-2.513zm114.245-23.601c-.818 6.993-3.013 12.984-5.219 14.23-2.507 1.423-8.295 1.695-12.641-1.48-4.351-3.185-5.8-8.912-4.189-16.559.162-.769.707-1.431 1.46-1.772 10.644-4.87 16.782-6.468 19.061-6.468.345 0 .601.04.771.107.685.73 1.583 4.87.757 11.942z"/>
  <circle cx="183.5" cy="3719.5" r="25.5" fill="#ffb922" transform="matrix(1.04497 0 0 1.04497 -121.87 -3856.813)"/>
  <path fill="#01cefe" d="M124.461 77.223a2.126 2.126 0 00-2.126 2.126c0 1.489-1.21 2.7-2.7 2.7a2.703 2.703 0 01-2.7-2.7 2.126 2.126 0 10-4.252 0 6.96 6.96 0 006.952 6.952 6.96 6.96 0 006.953-6.952 2.126 2.126 0 00-2.127-2.126z"/>
  <path fill="#551270" d="M144.42 77.572l-5.985-1.919a2.497 2.497 0 01-1.615-1.636 38.73 38.73 0 00-5.658-11.192 41.66 41.66 0 00-3.779-4.451c.883-3.877 1.363-8.26 1.3-12.049-.088-5.415-1.171-8.59-3.31-9.71-1.15-.605-4.655-2.436-23.621 6.243-.45.204-.87.458-1.258.75a82.27 82.27 0 00-3.9-.945c-.159-.039-.322-.068-.482-.107a28.923 28.923 0 002.604-10.763 2.122 2.122 0 00-2.03-2.221 2.125 2.125 0 00-2.22 2.026 24.695 24.695 0 01-7.228 16.403 24.596 24.596 0 01-8.957 5.717 62.173 62.173 0 00-17.115 0 24.596 24.596 0 01-8.957-5.717c-4.678-4.676-7.255-10.9-7.255-17.513 0-6.614 2.577-12.838 7.255-17.513 4.678-4.685 10.898-7.257 17.515-7.257 6.615 0 12.835 2.572 17.514 7.257a24.769 24.769 0 014.617 6.37 2.127 2.127 0 003.798-1.91 28.99 28.99 0 00-5.409-7.47c-5.48-5.484-12.769-8.503-20.52-8.503-7.753 0-15.04 3.02-20.522 8.503-5.48 5.484-8.5 12.77-8.5 20.523s3.02 15.039 8.5 20.522a29.15 29.15 0 005.121 4.072h.001c-1.321.35-2.633.73-3.93 1.169a2.123 2.123 0 00-1.343 2.688 2.131 2.131 0 002.69 1.344c11.596-3.877 24.37-3.877 35.965 0 .223.078.451.107.674.107a2.125 2.125 0 00.674-4.14 61.493 61.493 0 00-3.932-1.168h.002a29.107 29.107 0 005.12-4.072 29.181 29.181 0 003.707-4.558c.586.117 1.168.234 1.741.36.764.166 1.524.351 2.277.536a5.576 5.576 0 00-.068.273c-1.037 4.919-.969 9.272.2 12.935 1.052 3.292 2.95 5.96 5.64 7.928 3.17 2.319 6.998 3.322 10.465 3.322 2.61 0 5.016-.565 6.783-1.568 1.998-1.13 3.673-3.517 4.998-7.101.613.72 1.194 1.451 1.74 2.201a34.34 34.34 0 015.037 9.955 6.755 6.755 0 004.374 4.412l5.984 1.919a3.767 3.767 0 012.626 3.594v9.925a3.758 3.758 0 01-2.626 3.595l-9.641 3.097a6.53 6.53 0 00-3.676 2.98c-3.788 6.546-9.744 11.962-17.703 16.101a3.329 3.329 0 00-1.748 2.348l-3.088 16.354a.96.96 0 01-.938.779H96.286a.96.96 0 01-.939-.78l-1.71-9.038a3.345 3.345 0 00-3.799-2.689 87.795 87.795 0 01-13.245.994c-3.322 0-6.6-.185-9.746-.555a3.363 3.363 0 00-3.684 2.707l-1.626 8.582a.96.96 0 01-.938.779H50.558a.962.962 0 01-.94-.79l-2.974-15.438a3.365 3.365 0 00-1.715-2.327c-13.567-7.237-20.738-19.335-20.738-34.987 0-7.91 1.73-14.903 5.14-20.786 3.185-5.484 7.834-10.023 13.821-13.49a2.123 2.123 0 00.776-2.903 2.134 2.134 0 00-2.906-.78C29.415 55.618 22.413 65.972 20.486 79.13l-.614-.058a10.537 10.537 0 00-.78-4.237c-1.232-3.068-3.767-5.289-6.455-5.64-2.118-.282-4.135.614-5.533 2.465-2.03 2.678-1.698 4.802-1.064 6.107 1.07 2.21 3.824 3.77 8.392 4.753-.125.185-.264.37-.415.565-2.699 3.38-5.879 4.13-7.944 4.198-1.209.039-2.177 1.013-2.177 2.22v.01a2.22 2.22 0 002.133 2.221c.153.01.313.01.478.01 2.614 0 6.807-.954 10.836-6.01a12.005 12.005 0 001.552-2.513c.401.05.787.088 1.156.127v-.01a56.542 56.542 0 00-.113 3.517c0 8.853 2.112 16.743 6.274 23.464 3.838 6.195 9.333 11.26 16.338 15.078l2.891 15.01a5.211 5.211 0 005.117 4.236h10.041c2.5 0 4.652-1.782 5.117-4.237l1.47-7.763c3.051.322 6.212.487 9.406.487 4.383 0 8.76-.301 13.028-.905l1.549 8.181a5.221 5.221 0 005.116 4.247h10.042c2.5 0 4.652-1.792 5.117-4.247l3.007-15.915c8.494-4.5 14.897-10.393 19.034-17.542a2.346 2.346 0 011.293-1.072l9.642-3.087a8.003 8.003 0 005.58-7.647v-9.925a8.003 8.003 0 00-5.58-7.646zM9.866 75.906c-.22-.448.3-1.246.63-1.685.52-.691 1.001-.828 1.365-.828.077 0 .148.01.214.01.977.137 2.347 1.208 3.073 3.02.17.419.393 1.12.444 1.996-2.942-.603-5.23-1.48-5.726-2.513zm114.245-23.6c-.818 6.993-3.013 12.984-5.218 14.23-2.508 1.422-8.296 1.695-12.642-1.48-4.351-3.185-5.8-8.913-4.189-16.559.162-.77.707-1.431 1.46-1.772 10.645-4.87 16.782-6.468 19.061-6.468.345 0 .601.04.772.107.684.73 1.582 4.87.756 11.942z"/>
  <path fill="#551270" d="M71.789 28.053v-7.617c2.623.194 3.598 1.393 4.498 1.393 1.124 0 1.649-1.432 1.649-2.143 0-1.831-3.6-2.62-6.147-2.698v-1.013c0-.448-.563-.858-1.125-.858-.638 0-1.087.41-1.087.858v1.09c-3.561.37-7.122 2.25-7.122 6.975 0 4.792 3.748 6.146 7.122 7.344v8.805c-3.824-.292-4.836-2.922-6.073-2.922-.937 0-1.724 1.237-1.724 2.143 0 1.83 3.149 4.344 7.797 4.422v1.159c0 .448.45.857 1.087.857.562 0 1.125-.41 1.125-.857v-1.276c4.048-.565 6.822-3.107 6.822-7.724 0-5.094-3.561-6.74-6.822-7.938zm-.226 12.068v-7.91c1.837.79 3.299 1.832 3.299 4.199 0 2.133-1.275 3.33-3.3 3.71zm-1.761-12.78v-6.827c-2.1.263-3.6 1.198-3.6 3.146 0 2.143 1.613 2.932 3.6 3.682z"/>
</svg>
