<svg xmlns="http://www.w3.org/2000/svg" fill-rule="evenodd" stroke-linejoin="round" stroke-miterlimit="2" clip-rule="evenodd" viewBox="0 0 150 150">
  <path fill="none" d="M0 0h150v150H0z"/>
  <path fill="#01cefe" d="M94.727 133.76h1.54c2.238 0 4.266.911 5.74 2.372a8.125 8.125 0 012.386 5.746 8.084 8.084 0 01-2.386 5.737 8.103 8.103 0 01-5.74 2.382H50.819a8.105 8.105 0 01-5.742-2.382 8.084 8.084 0 01-2.385-5.737c0-2.235.912-4.265 2.385-5.746a8.138 8.138 0 015.742-2.373h1.53l1.996-15.699H18.693a12.26 12.26 0 01-8.697-3.618 12.26 12.26 0 01-3.615-8.698v-4.187a2.154 2.154 0 014.307 0v4.187c0 2.197.904 4.207 2.354 5.658a8.022 8.022 0 005.651 2.354h109.699a8.022 8.022 0 005.652-2.354 8.007 8.007 0 002.352-5.658V54.58a2.15 2.15 0 012.15-2.158c1.19 0 2.159.961 2.159 2.158v51.165c0 3.393-1.385 6.472-3.616 8.698a12.256 12.256 0 01-8.697 3.618H92.741l1.986 15.7zm-16.303 4.304a2.157 2.157 0 01-2.158-2.157c0-1.187.97-2.148 2.158-2.148h11.979l-1.994-15.699H58.677l-1.996 15.7h11.98c1.188 0 2.158.96 2.158 2.147 0 1.196-.97 2.157-2.158 2.157H50.819c-1.05 0-2.004.431-2.696 1.118A3.816 3.816 0 0047 141.878c0 1.04.432 2 1.124 2.687a3.792 3.792 0 002.696 1.128h45.448c1.05 0 2.002-.432 2.695-1.128a3.81 3.81 0 001.124-2.687 3.826 3.826 0 00-3.82-3.814H78.425zm9.137-113.285a2.149 2.149 0 010-3.05 2.167 2.167 0 013.046 0l6.588 6.59h31.197a12.26 12.26 0 018.698 3.618 12.26 12.26 0 013.615 8.698v4.187a2.154 2.154 0 01-4.308 0v-4.187a8.008 8.008 0 00-2.353-5.658 8.022 8.022 0 00-5.652-2.353h-26.889c2.98 2.98 5.952 5.962 8.933 8.933a10.043 10.043 0 012.94 7.119 9.987 9.987 0 01-2.94 7.109 10.012 10.012 0 01-7.11 2.941c-2.581 0-5.162-.98-7.116-2.941-7.72-7.717-15.44-15.434-23.16-23.161H18.693a8.022 8.022 0 00-5.651 2.353 8.008 8.008 0 00-2.354 5.658v51.166a2.15 2.15 0 01-2.15 2.157 2.156 2.156 0 01-2.157-2.157V40.635a12.26 12.26 0 013.615-8.698 12.26 12.26 0 018.697-3.618h50.05l-6.36-6.354-1.15 1.147a2.15 2.15 0 01-3.045 0 2.163 2.163 0 010-3.05L74.71 3.55a2.132 2.132 0 013.046 0 2.15 2.15 0 010 3.04l-1.149 1.147 7.094 7.1a2.149 2.149 0 010 3.049c-.84.834-2.2.834-3.046 0l-7.093-7.1-8.135 8.13c6.058 6.06 12.11 12.11 18.16 18.16h16.27L87.56 24.779zm.343 16.611l11.35 11.355a5.774 5.774 0 008.136 0 5.738 5.738 0 001.678-4.07c0-1.47-.562-2.941-1.678-4.069l-3.225-3.216H87.904z"/>
  <path fill="#ffb922" d="M77.35 78.168l-1.352.47c-1.598.508-3.215.856-4.85.856-3.252 0-6.25-1.288-9.238-2.566-2.529-1.081-5.048-2.152-7.313-2.152-2.255 0-4.783 1.071-7.302 2.152-2.998 1.278-5.987 2.566-9.239 2.566-1.635 0-3.251-.348-4.858-.856-.46-.15-.912-.31-1.353-.47a22.304 22.304 0 00-.076 1.786c0 6.297 2.557 12.001 6.692 16.137a22.751 22.751 0 0016.137 6.681 22.766 22.766 0 0016.137-6.681c4.126-4.136 6.682-9.84 6.682-16.137l-.066-1.786zM88.81 37.24l13.506 13.507a6.83 6.83 0 004.845 1.996 6.822 6.822 0 004.835-1.996 6.82 6.82 0 001.997-4.835 6.859 6.859 0 00-1.997-4.844l-3.837-3.828h-19.35z"/>
  <path fill="#551270" d="M41.478 40.441c-1.189 0-2.15-.97-2.15-2.157 0-1.186.961-2.157 2.15-2.157h26.23a2.157 2.157 0 110 4.314h-2.085v19.513a24.238 24.238 0 019.17 8.286 24.014 24.014 0 013.884 13.12 24.016 24.016 0 01-7.052 17.033 24.012 24.012 0 01-17.028 7.05 24.013 24.013 0 01-17.028-7.05 23.99 23.99 0 01-7.06-17.033 24.02 24.02 0 013.893-13.12 24.273 24.273 0 019.161-8.286V40.441h-2.085zm32.834 39.38l-1.173.402c-1.384.44-2.785.745-4.202.745-2.818 0-5.415-1.118-8.004-2.226-2.19-.941-4.373-1.863-6.336-1.863-1.955 0-4.145.922-6.328 1.863-2.597 1.108-5.187 2.226-8.004 2.226-1.417 0-2.817-.304-4.21-.745-.399-.128-.79-.265-1.173-.402-.04.51-.065 1.02-.065 1.54a19.699 19.699 0 005.798 13.982 19.7 19.7 0 0013.982 5.795 19.716 19.716 0 0013.982-5.795 19.724 19.724 0 005.79-13.983l-.057-1.54zm-38.616-4.295c.57.225 1.124.441 1.653.608.977.314 1.955.51 2.916.51 1.955 0 4.145-.922 6.327-1.863 2.59-1.108 5.187-2.217 8.005-2.217 2.826 0 5.415 1.109 8.013 2.217 2.182.94 4.365 1.863 6.327 1.863.961 0 1.931-.196 2.908-.51a24.99 24.99 0 001.652-.608 19.307 19.307 0 00-2.312-4.932c-2.06-3.168-5-5.717-8.486-7.276a2.167 2.167 0 01-1.384-2.01V40.44H47.871v20.867c0 .823-.48 1.608-1.288 1.97a19.763 19.763 0 00-8.582 7.316 19.198 19.198 0 00-2.305 4.932z"/>
  <path fill="#01cefe" d="M91.25 94a2.154 2.154 0 01-2.158-2.148c0-1.196.969-2.157 2.158-2.157h28.02c1.19 0 2.159.96 2.159 2.157A2.154 2.154 0 01119.27 94H91.25zm0-10.424a2.154 2.154 0 01-2.158-2.147c0-1.187.969-2.157 2.158-2.157h32.76c1.19 0 2.159.97 2.159 2.157 0 1.186-.97 2.147-2.158 2.147H91.25zm0-10.413c-1.19 0-2.158-.971-2.158-2.158 0-1.186.969-2.147 2.158-2.147h32.76c1.19 0 2.159.96 2.159 2.147 0 1.187-.97 2.158-2.158 2.158H91.25z"/>
  <path fill="#551270" d="M97.642 130.85h1.54c2.238 0 4.266.911 5.74 2.372a8.125 8.125 0 012.386 5.746 8.084 8.084 0 01-2.386 5.737 8.103 8.103 0 01-5.74 2.382H53.734a8.105 8.105 0 01-5.742-2.382 8.084 8.084 0 01-2.385-5.737c0-2.235.912-4.265 2.385-5.746a8.138 8.138 0 015.742-2.373h1.53l1.996-15.699H21.608a12.26 12.26 0 01-8.697-3.618 12.26 12.26 0 01-3.615-8.698v-4.187a2.154 2.154 0 014.307 0v4.187c0 2.197.904 4.207 2.354 5.658a8.022 8.022 0 005.651 2.354h109.699a8.022 8.022 0 005.652-2.354 8.007 8.007 0 002.352-5.658V51.67a2.15 2.15 0 012.15-2.158c1.19 0 2.159.961 2.159 2.158v51.165c0 3.393-1.385 6.472-3.616 8.698a12.256 12.256 0 01-8.697 3.618H95.656l1.986 15.7zm-16.303 4.304a2.157 2.157 0 01-2.158-2.157c0-1.187.97-2.148 2.158-2.148h11.979l-1.994-15.699H61.592l-1.996 15.7h11.98c1.188 0 2.158.96 2.158 2.147 0 1.196-.97 2.157-2.158 2.157H53.734c-1.05 0-2.004.431-2.696 1.118a3.816 3.816 0 00-1.124 2.696c0 1.04.432 2 1.124 2.687a3.792 3.792 0 002.696 1.128h45.448c1.05 0 2.002-.432 2.695-1.128a3.81 3.81 0 001.124-2.687 3.826 3.826 0 00-3.82-3.814H81.34zm9.137-113.285a2.149 2.149 0 010-3.05 2.167 2.167 0 013.046 0l6.588 6.59h31.197a12.26 12.26 0 018.698 3.618 12.26 12.26 0 013.615 8.698v4.187a2.154 2.154 0 01-4.308 0v-4.187a8.008 8.008 0 00-2.353-5.658 8.022 8.022 0 00-5.652-2.353h-26.889c2.98 2.98 5.952 5.962 8.933 8.933a10.043 10.043 0 012.94 7.119 9.987 9.987 0 01-2.94 7.109 10.012 10.012 0 01-7.11 2.941c-2.581 0-5.162-.98-7.116-2.941-7.72-7.717-15.44-15.434-23.16-23.161H21.608a8.022 8.022 0 00-5.651 2.353 8.008 8.008 0 00-2.354 5.658v51.166a2.15 2.15 0 01-2.15 2.157 2.156 2.156 0 01-2.157-2.157V37.725a12.26 12.26 0 013.615-8.698 12.26 12.26 0 018.697-3.618h50.05l-6.36-6.354-1.15 1.147a2.15 2.15 0 01-3.045 0 2.163 2.163 0 010-3.05L77.626.64a2.132 2.132 0 013.046 0 2.15 2.15 0 010 3.04l-1.149 1.147 7.094 7.1a2.149 2.149 0 010 3.049c-.84.834-2.2.834-3.046 0l-7.093-7.1-8.135 8.13c6.058 6.06 12.11 12.11 18.16 18.16h16.27L90.476 21.869zm.343 16.611l11.35 11.355a5.774 5.774 0 008.136 0 5.738 5.738 0 001.678-4.07c0-1.47-.562-2.941-1.678-4.069l-3.225-3.216H90.82z"/>
</svg>
