<svg xmlns="http://www.w3.org/2000/svg" fill-rule="evenodd" stroke-linejoin="round" stroke-miterlimit="2" clip-rule="evenodd" viewBox="0 0 150 150">
  <path fill="#01cefe" d="M143.691 36.85c1.6 2.029 3.413 4.343 3.413 7.295 0 2.96-1.813 5.265-3.413 7.305-.862 1.098-1.679 2.137-2.073 3.098-.426 1.03-.593 2.403-.772 3.844-.311 2.53-.664 5.403-2.655 7.413-1.992 2-4.845 2.363-7.362 2.667-1.437.187-2.795.353-3.822.785-.951.392-1.984 1.216-3.078 2.079-2.024 1.617-4.316 3.441-7.253 3.441-2.936 0-5.23-1.824-7.254-3.441-.157-.118-.314-.246-.47-.363V99.3l5.696-4.49a3.266 3.266 0 012.028-.697c.738 0 1.46.245 2.036.706l5.689 4.481V77.307c0-1.186.958-2.147 2.14-2.147 1.182 0 2.14.96 2.14 2.147v24.053a3.284 3.284 0 01-1.848 2.971 3.282 3.282 0 01-1.444.334 3.243 3.243 0 01-2.023-.706l-4.55-3.589v39.34c0 5.678-4.583 10.286-10.215 10.286h-89.16c-5.632 0-10.215-4.608-10.215-10.286V30.995c0-1.186.959-2.147 2.141-2.147 1.183 0 2.14.96 2.14 2.147V139.71c0 3.295 2.662 5.982 5.935 5.982H108.6c3.273 0 5.935-2.687 5.935-5.982v-39.34l-4.549 3.589c-1 .784-2.327.931-3.466.372a3.284 3.284 0 01-1.847-2.97V68.785c-.672-.127-1.399-.216-2.15-.314-2.517-.304-5.37-.667-7.361-2.667-1.992-2-2.345-4.883-2.657-7.413-.177-1.441-.344-2.814-.77-3.844-.394-.96-1.21-2-2.075-3.098-1.598-2.04-3.41-4.344-3.41-7.305 0-2.952 1.812-5.266 3.41-7.296.864-1.108 1.68-2.147 2.075-3.098.426-1.04.593-2.403.77-3.854.312-2.53.665-5.403 2.657-7.403 1.99-2.01 4.844-2.363 7.361-2.677 1.438-.177 2.796-.343 3.822-.775.952-.402 1.984-1.216 3.077-2.088 1.505-1.197 3.158-2.51 5.114-3.109v-.647c0-3.295-2.663-5.981-5.935-5.981h-89.16c-3.272 0-5.934 2.686-5.934 5.98v8.316a2.143 2.143 0 01-2.14 2.148 2.144 2.144 0 01-2.14-2.148v-8.315c0-5.678 4.582-10.286 10.215-10.286h89.16c5.631 0 10.214 4.608 10.214 10.286v.647c1.956.598 3.61 1.912 5.114 3.109 1.093.872 2.126 1.686 3.077 2.088 1.027.432 2.385.598 3.822.775 2.517.314 5.371.667 7.362 2.677 1.992 2 2.345 4.873 2.655 7.403.179 1.451.346 2.814.772 3.854.394.95 1.21 1.99 2.073 3.098zm-3.357 11.923c1.28-1.628 2.489-3.167 2.489-4.628 0-1.452-1.21-3.001-2.489-4.629-1.007-1.284-2.048-2.608-2.67-4.118-.648-1.579-.86-3.305-1.065-4.972-.249-2.02-.483-3.932-1.434-4.893-.95-.95-2.85-1.186-4.86-1.441-1.658-.206-3.373-.422-4.937-1.069-1.5-.627-2.817-1.677-4.09-2.687-1.619-1.284-3.146-2.5-4.593-2.51h-.017c-1.446.01-2.975 1.226-4.591 2.51-1.274 1.01-2.592 2.06-4.091 2.687-1.565.647-3.279.863-4.937 1.069-2.011.255-3.91.49-4.861 1.441-.95.961-1.185 2.873-1.433 4.893-.205 1.667-.417 3.403-1.065 4.972-.623 1.51-1.663 2.834-2.67 4.118-1.28 1.628-2.489 3.177-2.489 4.629 0 1.46 1.209 3 2.489 4.628 1.007 1.284 2.047 2.608 2.67 4.118.648 1.579.86 3.305 1.065 4.972.248 2.03.483 3.941 1.433 4.893.95.96 2.85 1.196 4.861 1.441 1.47.186 2.983.373 4.397.873.078.02.436.157.54.206 1.499.617 2.817 1.667 4.09 2.686 1.621 1.285 3.152 2.5 4.6 2.5 1.45 0 2.98-1.215 4.601-2.5 1.274-1.02 2.591-2.069 4.091-2.686 1.564-.657 3.279-.873 4.936-1.079 2.01-.245 3.91-.48 4.86-1.441.952-.952 1.186-2.864 1.435-4.893.204-1.667.417-3.393 1.065-4.972.622-1.51 1.663-2.834 2.67-4.118z"/>
  <path fill="#ffb922" d="M145.734 46.368c1.412-1.808 2.745-3.516 2.745-5.132 0-1.617-1.334-3.325-2.745-5.133-1.11-1.421-2.257-2.891-2.943-4.565-.715-1.745-.948-3.658-1.174-5.508-.274-2.243-.533-4.362-1.58-5.422-1.048-1.06-3.142-1.323-5.36-1.6-1.827-.228-3.717-.465-5.442-1.189-1.653-.694-3.106-1.855-4.51-2.978-1.783-1.426-3.468-2.773-5.063-2.778h-.018c-1.595.006-3.28 1.352-5.063 2.778-1.404 1.123-2.857 2.284-4.51 2.978-1.725.724-3.614.96-5.442 1.189-2.217.277-4.311.539-5.36 1.6-1.047 1.06-1.306 3.179-1.58 5.422-.225 1.85-.459 3.763-1.174 5.508-.686 1.674-1.833 3.144-2.943 4.565-1.411 1.808-2.744 3.516-2.744 5.133 0 1.616 1.333 3.324 2.744 5.132 1.11 1.422 2.257 2.891 2.943 4.565.715 1.746.948 3.658 1.174 5.508.274 2.243.533 4.362 1.58 5.423 1.049 1.06 3.143 1.322 5.36 1.6 1.62.202 3.288.412 4.848.961.085.027.48.18.594.227 1.653.694 3.106 1.856 4.51 2.979 1.787 1.428 3.474 2.777 5.072 2.777 1.598 0 3.285-1.35 5.072-2.777 1.404-1.124 2.857-2.285 4.51-2.979 1.725-.724 3.614-.96 5.442-1.189 2.217-.277 4.311-.539 5.36-1.6 1.047-1.06 1.305-3.179 1.58-5.422.225-1.85.459-3.763 1.174-5.508.686-1.674 1.833-3.143 2.943-4.565z"/>
  <path fill="#01cefe" d="M25.293 135.673a2.16 2.16 0 002.149-2.168 2.158 2.158 0 00-2.149-2.167 2.16 2.16 0 00-2.149 2.167 2.16 2.16 0 002.149 2.168zm7.903-.01a2.152 2.152 0 01-2.14-2.158c0-1.186.958-2.157 2.14-2.157h66.65c1.183 0 2.142.971 2.142 2.157a2.152 2.152 0 01-2.141 2.158h-66.65zm-7.903-11.61c1.186 0 2.149-.97 2.149-2.167a2.15 2.15 0 00-2.149-2.157 2.15 2.15 0 00-2.149 2.157 2.16 2.16 0 002.149 2.167zm7.903-.01a2.146 2.146 0 01-2.14-2.157c0-1.187.958-2.148 2.14-2.148h66.65c1.183 0 2.142.961 2.142 2.148a2.146 2.146 0 01-2.141 2.157h-66.65zm-7.903-11.61c1.186 0 2.149-.97 2.149-2.167a2.156 2.156 0 00-2.149-2.157c-1.186 0-2.149.97-2.149 2.157a2.16 2.16 0 002.149 2.167zm7.903-.01a2.146 2.146 0 01-2.14-2.157c0-1.186.958-2.147 2.14-2.147h66.65c1.183 0 2.142.96 2.142 2.147a2.146 2.146 0 01-2.141 2.157h-66.65zm-7.903-11.61c1.186 0 2.149-.97 2.149-2.157a2.158 2.158 0 00-2.149-2.167 2.16 2.16 0 00-2.149 2.167c0 1.187.963 2.158 2.149 2.158zm7.903-.01a2.144 2.144 0 01-2.14-2.147c0-1.196.958-2.157 2.14-2.157h66.65c1.183 0 2.142.961 2.142 2.157a2.144 2.144 0 01-2.141 2.148h-66.65zm-7.903-11.61a2.15 2.15 0 002.149-2.156 2.158 2.158 0 00-2.149-2.167c-1.186 0-2.149.97-2.149 2.167a2.15 2.15 0 002.149 2.157zm7.903 0c-1.182 0-2.14-.97-2.14-2.156 0-1.187.958-2.158 2.14-2.158h66.65c1.183 0 2.142.971 2.142 2.158a2.152 2.152 0 01-2.141 2.157h-66.65zm-7.903-11.609c1.186 0 2.149-.97 2.149-2.167a2.15 2.15 0 00-2.149-2.157 2.15 2.15 0 00-2.149 2.157 2.16 2.16 0 002.149 2.167zm5.762-2.167c0-1.187.959-2.157 2.141-2.157h66.65c1.183 0 2.142.97 2.142 2.157a2.152 2.152 0 01-2.141 2.157h-66.65a2.152 2.152 0 01-2.142-2.157z"/>
  <path fill="#551270" d="M146.587 33.94c1.6 2.029 3.413 4.343 3.413 7.295 0 2.96-1.813 5.265-3.413 7.305-.862 1.098-1.679 2.137-2.073 3.098-.426 1.03-.593 2.403-.772 3.844-.311 2.53-.664 5.403-2.655 7.413-1.992 2-4.845 2.363-7.362 2.667-1.437.187-2.795.353-3.822.785-.951.392-1.984 1.216-3.078 2.079-2.024 1.617-4.316 3.441-7.253 3.441-2.936 0-5.23-1.824-7.254-3.441-.157-.118-.314-.246-.47-.363V96.39l5.696-4.49a3.266 3.266 0 012.028-.697c.738 0 1.46.245 2.036.706l5.689 4.481V74.397c0-1.186.958-2.147 2.14-2.147 1.182 0 2.14.96 2.14 2.147V98.45a3.284 3.284 0 01-1.848 2.971 3.282 3.282 0 01-1.444.334 3.243 3.243 0 01-2.023-.706l-4.55-3.589v39.34c0 5.678-4.583 10.286-10.215 10.286h-89.16c-5.632 0-10.215-4.608-10.215-10.286V28.085c0-1.186.959-2.147 2.141-2.147 1.183 0 2.14.96 2.14 2.147V136.8c0 3.295 2.662 5.982 5.935 5.982h89.158c3.273 0 5.935-2.687 5.935-5.982V97.46l-4.549 3.589c-1 .784-2.327.931-3.466.372a3.284 3.284 0 01-1.847-2.97V65.875c-.672-.127-1.399-.216-2.15-.314-2.517-.304-5.37-.667-7.361-2.667-1.992-2-2.345-4.883-2.657-7.413-.177-1.441-.344-2.814-.77-3.844-.394-.96-1.21-2-2.075-3.098-1.598-2.04-3.41-4.344-3.41-7.305 0-2.952 1.812-5.266 3.41-7.296.864-1.108 1.68-2.147 2.075-3.098.426-1.04.593-2.403.77-3.854.312-2.53.665-5.403 2.657-7.403 1.99-2.01 4.844-2.363 7.361-2.677 1.438-.177 2.796-.343 3.822-.775.952-.402 1.984-1.216 3.077-2.088 1.505-1.197 3.158-2.51 5.114-3.109v-.647c0-3.295-2.663-5.981-5.935-5.981h-89.16c-3.272 0-5.934 2.686-5.934 5.98v8.316a2.143 2.143 0 01-2.14 2.148 2.144 2.144 0 01-2.14-2.148v-8.315C12.122 4.61 16.704.002 22.337.002h89.16c5.631 0 10.214 4.608 10.214 10.286v.647c1.956.598 3.61 1.912 5.114 3.109 1.093.872 2.126 1.686 3.077 2.088 1.027.432 2.385.598 3.822.775 2.517.314 5.371.667 7.362 2.677 1.992 2 2.345 4.873 2.655 7.403.179 1.451.346 2.814.772 3.854.394.95 1.21 1.99 2.073 3.098zm-3.357 11.923c1.28-1.628 2.489-3.167 2.489-4.628 0-1.452-1.21-3.001-2.489-4.629-1.007-1.284-2.048-2.608-2.67-4.118-.648-1.579-.86-3.305-1.065-4.972-.249-2.02-.483-3.932-1.434-4.893-.95-.95-2.85-1.186-4.86-1.441-1.658-.206-3.373-.422-4.937-1.069-1.5-.627-2.817-1.677-4.09-2.687-1.619-1.284-3.146-2.5-4.593-2.51h-.017c-1.446.01-2.975 1.226-4.591 2.51-1.274 1.01-2.592 2.06-4.091 2.687-1.565.647-3.279.863-4.937 1.069-2.011.255-3.91.49-4.861 1.441-.95.961-1.185 2.873-1.433 4.893-.205 1.667-.417 3.403-1.065 4.972-.623 1.51-1.663 2.834-2.67 4.118-1.28 1.628-2.489 3.177-2.489 4.629 0 1.46 1.209 3 2.489 4.628 1.007 1.284 2.047 2.608 2.67 4.118.648 1.579.86 3.305 1.065 4.972.248 2.03.483 3.941 1.433 4.893.95.96 2.85 1.196 4.861 1.441 1.47.186 2.983.373 4.397.873.078.02.436.157.54.206 1.499.617 2.817 1.667 4.09 2.686 1.621 1.285 3.152 2.5 4.6 2.5 1.45 0 2.98-1.215 4.601-2.5 1.274-1.02 2.591-2.069 4.091-2.686 1.564-.657 3.279-.873 4.936-1.079 2.01-.245 3.91-.48 4.86-1.441.952-.952 1.186-2.864 1.435-4.893.204-1.667.417-3.393 1.065-4.972.622-1.51 1.663-2.834 2.67-4.118z"/>
  <path fill="#551270" d="M133.312 34.39a2.697 2.697 0 011.835 1.775 2.74 2.74 0 01-.447 2.53l-4.68 5.981.29 7.62a2.724 2.724 0 01-1.113 2.304 2.698 2.698 0 01-2.522.353l-7.103-2.628-7.105 2.628a2.687 2.687 0 01-2.522-.353 2.732 2.732 0 01-1.11-2.305l.29-7.619-4.682-5.981a2.744 2.744 0 01-.447-2.53c.28-.863.966-1.53 1.835-1.775l7.284-2.079 4.21-6.324a2.696 2.696 0 014.494 0l4.21 6.324 7.283 2.08zm-7.015 8.09a2.72 2.72 0 00-.576 1.784l.222 5.825-5.437-2.01a2.717 2.717 0 00-1.867-.01l-5.438 2.02.223-5.834a2.756 2.756 0 00-.578-1.785l-3.582-4.58 5.575-1.588a2.703 2.703 0 001.51-1.108l3.223-4.844 3.223 4.844c.356.54.892.932 1.51 1.108l5.575 1.589-3.583 4.589zm-66.632-1.52l-2.47.902c-3.814 1.392-6.66 4.756-7.426 8.766l-.838 4.432a7.45 7.45 0 001.563 6.149 7.364 7.364 0 005.715 2.716h21.417c2.202 0 4.274-.98 5.687-2.677a7.473 7.473 0 001.61-6.1l-.78-4.402c-.725-4.08-3.58-7.492-7.45-8.904l-2.62-.96v-3.884a2.21 2.21 0 00-.027-.323 10.596 10.596 0 003.006-7.364v-5.785c0-5.658-4.568-10.257-10.185-10.257-5.615 0-10.184 4.599-10.184 10.257v5.971a10.27 10.27 0 003 7.237c-.01.088-.018.176-.018.264v3.962zm20.263 10.541l.782 4.403a3.16 3.16 0 01-.68 2.579 3.123 3.123 0 01-2.404 1.127H56.208a3.123 3.123 0 01-2.415-1.147 3.15 3.15 0 01-.66-2.598l.84-4.423a7.39 7.39 0 014.68-5.53l1.618-.589c.04.05.081.089.125.128a9.8 9.8 0 006.472 2.432 9.747 9.747 0 006.47-2.432 1.86 1.86 0 00.186-.186l1.707.627a7.354 7.354 0 014.697 5.609zm-13.26-11.757a9.999 9.999 0 01-2.722-.431v3.441a5.555 5.555 0 005.845 0v-3.451a9.783 9.783 0 01-2.928.441h-.194zm-5.705-16.218c0-3.276 2.648-5.943 5.904-5.943 2.747 0 5.056 1.903 5.711 4.462-.275.137-.557.265-.846.382-2.631 1.06-4.758.922-5.364.49a2.124 2.124 0 00-2.982.53 2.164 2.164 0 00.523 3c1.045.736 2.465 1.109 4.083 1.109 1.472 0 3.108-.314 4.779-.922v2.677a6.282 6.282 0 01-1.857 4.432 6.085 6.085 0 01-1.983 1.304 5.495 5.495 0 01-2.18.392c-3.192-.058-5.788-2.726-5.788-5.942v-5.971z"/>
</svg>
