<svg xmlns="http://www.w3.org/2000/svg" fill-rule="evenodd" stroke-linejoin="round" stroke-miterlimit="2" clip-rule="evenodd" viewBox="0 0 432 133">
  <path fill="#121118" fill-rule="nonzero" d="M289.87 82.372v-26.81l-10.734 27.039a.298.298 0 01-.277.187h-2.244a.298.298 0 01-.276-.187L265.55 55.563v26.81a.416.416 0 01-.416.415h-5.368a.416.416 0 01-.416-.416v-34.43c0-.229.187-.416.416-.416h7.757a.84.84 0 01.78.53l9.434 24.196 9.378-24.195a.842.842 0 01.782-.53h7.756c.23 0 .416.186.416.415v34.43a.416.416 0 01-.416.416h-5.368a.416.416 0 01-.416-.416m79.964-17.336c0-10.889 7.82-18.238 17.888-18.238 6.556 0 10.77 3.342 13.315 7.337a.593.593 0 01-.227.843l-4.022 2.185a.577.577 0 01-.757-.209c-1.715-2.717-4.875-4.658-8.309-4.658-6.747 0-11.755 5.287-11.755 12.74 0 7.349 5.008 12.742 11.755 12.742 3.436 0 6.598-1.992 8.312-4.673a.585.585 0 01.75-.21l4.051 2.096a.587.587 0 01.233.855c-2.631 3.998-6.797 7.43-13.346 7.43-10.069 0-17.888-7.402-17.888-18.24m37.327 17.13V48.148c0-.343.28-.623.624-.623h22.968c.344 0 .623.28.623.623v4.2c0 .344-.28.622-.623.622h-16.769a.622.622 0 00-.622.622v7.849c0 .344.278.622.622.622h16.398c.344 0 .624.28.624.622v4.201c0 .343-.28.622-.624.622h-16.398a.622.622 0 00-.622.622v8.59c0 .344.278.622.622.622h16.769c.344 0 .623.278.623.622v4.2c0 .344-.28.623-.623.623h-22.968a.623.623 0 01-.624-.623m-48.225-23.642c0-3.384-2.542-5.552-6.038-5.552H345a.632.632 0 00-.633.632v9.944c0 .349.283.632.633.632h7.898c3.496 0 6.038-2.22 6.038-5.656m-.765 23.954l-7.421-12.543a.632.632 0 00-.545-.31H345a.633.633 0 00-.633.632v11.9c0 .349-.284.632-.634.632H338.8a.633.633 0 01-.633-.632V48.159c0-.35.284-.633.633-.633h14.892c6.994 0 11.603 4.494 11.603 11.05 0 5.804-3.577 9.183-7.532 10.178-.428.107-.647.572-.413.945l7.606 12.125a.63.63 0 01-.54.964h-5.7a.634.634 0 01-.545-.311m-53.028-.327V48.164c0-.352.286-.638.64-.638h22.935c.353 0 .64.286.64.638v4.17a.639.639 0 01-.64.637h-16.737a.638.638 0 00-.638.638v7.817c0 .353.286.638.638.638h16.367c.353 0 .639.286.639.638v4.17a.638.638 0 01-.639.637h-16.367a.638.638 0 00-.638.638v8.558c0 .353.286.638.638.638h16.737c.353 0 .64.286.64.638v4.169a.639.639 0 01-.64.638h-22.936a.639.639 0 01-.64-.638m-61.044.222v-26.81l-10.734 27.039a.298.298 0 01-.277.187h-2.244a.298.298 0 01-.276-.187l-10.788-27.038v26.81a.416.416 0 01-.417.415h-5.367a.416.416 0 01-.416-.416v-34.43c0-.229.186-.416.416-.416h7.757a.84.84 0 01.78.53l9.433 24.196 9.38-24.195a.842.842 0 01.781-.53h7.755c.23 0 .417.186.417.415v34.43a.416.416 0 01-.417.416h-5.367a.416.416 0 01-.416-.416m-42.796-17.19c0-7.294-4.451-12.74-11.305-12.74-6.907 0-11.307 5.446-11.307 12.74 0 7.244 4.4 12.742 11.307 12.742 6.854 0 11.305-5.498 11.305-12.742m-28.751 0c0-8.771 5.016-15.596 12.615-17.621 12.842-3.422 24.628 8.584 21.835 21.981-1.714 8.226-8.292 13.88-17.004 13.88-10.232 0-17.446-7.719-17.446-18.24m-34.68 0c0-10.889 7.819-18.237 17.888-18.237 6.556 0 10.77 3.342 13.314 7.337a.592.592 0 01-.226.842l-4.022 2.186a.578.578 0 01-.757-.209c-1.715-2.718-4.875-4.658-8.309-4.658-6.746 0-11.755 5.286-11.755 12.74 0 7.348 5.009 12.74 11.755 12.74 3.436 0 6.598-1.99 8.312-4.67a.585.585 0 01.749-.213l4.053 2.097c.32.167.43.554.231.856-2.63 3.997-6.797 7.43-13.345 7.43-10.069 0-17.888-7.402-17.888-18.24m-10.243-7.268l4.74-2.587v7.98h-14.802a.746.746 0 00-.747.745v5.066c0 .411.335.744.747.744h8.019c.309 0 .56.251.56.56v3.395c0 .175-.069.34-.2.453-1.492 1.265-4.284 2.518-7.27 2.518-6.464 0-11.127-4.916-11.127-11.578 0-6.66 4.663-11.577 11.126-11.577 3.438 0 6.284 1.816 7.99 4.06.22.29.644.396.964.221M56.21 75.51v-6.641c0-.385.313-.697.699-.697h9.05c2.915 0 4.504 1.799 4.504 4.017 0 2.538-1.697 4.018-4.504 4.018h-9.05a.689.689 0 01-.699-.697m0-14.643V54.52c0-.197.16-.357.359-.357h9.072c2.543 0 4.133 1.533 4.133 3.7 0 2.273-1.59 3.7-4.133 3.7h-8.732a.698.698 0 01-.699-.696m36.654 21.31a.64.64 0 01-.64.639h-6.242a.64.64 0 01-.641-.64v-33.98a.64.64 0 01.64-.641h6.243a.64.64 0 01.64.64v33.981zm25.811-35.203c6.565 0 10.947 2.983 13.694 6.614V1.251c0-1.022-1.165-1.612-1.992-1.008L65.564 47.555h1.718c6.73 0 10.173 4.282 10.173 8.986 0 3.654-1.91 6.354-4.476 7.553a.54.54 0 00.026.993c2.991 1.229 5.14 4.427 5.14 8.16 0 5.34-3.497 9.569-10.28 9.569h-18.48a.698.698 0 01-.7-.697V59.872L.445 95.075c-.841.683-.415 1.985.65 1.985h130.172a1.1 1.1 0 001.101-1.099v-17.81c-3.48 3.255-8.062 5.3-13.694 5.3-10.385 0-18.862-7.137-18.862-18.24 0-11.154 8.477-18.237 18.862-18.237"/>
  <path fill="url(#_Linear1)" fill-rule="nonzero" d="M289.138 111.286l-8.951 21.039h4.685l1.91-4.684h8.834l1.909 4.684h4.805l-8.953-21.039h-4.239zm-29.787.149v20.89h4.596v-6.266h3.491c4.686 0 8.446-2.508 8.446-7.342v-.059c0-4.228-2.959-7.17-7.862-7.223h-8.671zm129.818 0v20.89h15.907v-4.088h-11.341v-4.387h9.848v-4.088h-9.848v-4.238h11.191v-4.089h-15.757zm-53.969 0v4.238h6.356v16.652h4.597v-16.652h6.356v-4.238H335.2zm-24.864 0v20.89h4.595v-6.684h3.61l4.477 6.684h5.373l-5.104-7.46c2.656-.985 4.475-3.103 4.475-6.476v-.06c0-1.97-.626-3.611-1.789-4.774-1.348-1.348-3.358-2.094-5.944-2.12h-9.693zm103.609 0v20.89h4.596v-6.684h3.61l4.477 6.684H432l-5.103-7.46c2.655-.985 4.476-3.103 4.476-6.476v-.06c0-1.97-.627-3.611-1.79-4.774-1.348-1.348-3.358-2.094-5.944-2.12h-9.694zm-39.107 0v12.863l-9.788-12.863h-4.238v20.89h4.536v-13.279l10.116 13.279h3.91v-20.89h-4.536zm-83.639 5.373l2.775 6.774h-5.551l2.776-6.774zm-27.252-1.224h3.551c2.298 0 3.731 1.103 3.731 3.163v.06c0 1.79-1.344 3.163-3.641 3.163h-3.641v-6.386zm50.984 0h4.565c2.239 0 3.611 1.015 3.611 2.984v.06c0 1.76-1.283 2.954-3.52 2.954h-4.656v-5.998zm103.61 0h4.565c2.239 0 3.612 1.015 3.612 2.984v.06c0 1.76-1.284 2.954-3.522 2.954h-4.655v-5.998zm13.132-16.512H185.744v-4.025h245.929v4.025z"/>
  <defs>
    <linearGradient id="_Linear1" x1="0" x2="1" y1="0" y2="0" gradientTransform="matrix(246.256 0 0 37.2782 185.744 113.686)" gradientUnits="userSpaceOnUse">
      <stop offset="0" stop-color="#05d8e8" stop-opacity="0"/>
      <stop offset=".25" stop-color="#05d8e8"/>
      <stop offset=".67" stop-color="#0083e3"/>
      <stop offset="1" stop-color="#0f52ff"/>
      <stop offset="1" stop-color="#0f52ff"/>
    </linearGradient>
  </defs>
</svg>
