<svg xmlns="http://www.w3.org/2000/svg" fill-rule="evenodd" stroke-linejoin="round" stroke-miterlimit="2" clip-rule="evenodd" viewBox="0 0 270 67">
  <path fill="#30353f" fill-rule="nonzero" d="M0 66.69h41.51V0H0v66.69zM5.941 5.94h29.533v54.72H5.941V5.94zM23.65 42.57V23.78c0-5.67-2.78-7.69-8.769-10.55l-2.554 4.57 3.122 1.79c1.617.95 2.27 1.99 2.355 4.73v18.83c0 5.67 2.781 7.69 8.77 10.55l2.563-4.56-3.112-1.84c-1.618-.95-2.27-2-2.375-4.73zM260.72 31.53l-7.568-1.44c-2.914-.47-4.569-1.58-4.569-3.68 0-2.83 3.207-4.42 6.442-4.42 2.47 0 5.742.78 9.46 3.91l4.304-5.3c-4.777-3.42-9.053-4.86-13.906-4.86-8.76 0-13.764 5.53-13.764 11.45 0 4.97 2.753 8.17 12.582 9.97l4.275.81c2.753.51 4.56 1.73 4.56 4.05 0 1.95-2.61 4.42-6.953 4.42-3.907 0-8.324-2.24-11.01-5.16l-5.147 5.27c4.73 4.05 9.81 6.15 15.741 6.15C265.8 52.7 270 46.08 270 40.89c0-5.2-3.056-8.21-9.28-9.36zm-31.27 4.67c.03.3.046.6.046.9 0 4.67-3.843 8.51-8.514 8.51-4.67 0-8.514-3.84-8.514-8.51 0-.3.016-.6.048-.9V15.71h-7.568v21.18c0 9.87 7.691 15.73 16.006 15.73 8.315 0 16.081-5.9 16.081-15.73V15.71h-7.567l-.019 20.49zM79.347 31.42l-7.568-1.43c-2.913-.48-4.569-1.59-4.569-3.68 0-2.84 3.207-4.42 6.442-4.42 2.47 0 5.742.77 9.46 3.9l4.304-5.3c-4.786-3.42-9.053-4.86-13.906-4.86-8.759 0-13.773 5.52-13.773 11.45 0 5 2.762 8.17 12.63 10.01l4.265.81c2.762.52 4.57 1.73 4.57 4.05 0 1.94-2.62 4.41-6.963 4.41-3.898 0-8.315-2.24-11.002-5.15l-5.24 5.23c4.786 4.05 9.866 6.15 15.788 6.15 10.642 0 14.833-6.62 14.833-11.82 0-5.19-3.056-8.21-9.27-9.35zm62.236 6.77V13.83c0-7.33-3.604-9.98-11.352-13.7l-3.31 5.94 4.048 2.31c2.091 1.21 2.942 2.58 3.055 6.11v24.4c0 7.33 3.605 9.98 11.352 13.7l3.311-5.93-4.049-2.36c-2.1-1.21-2.942-2.57-3.055-6.11zm53.145-18.91a19.659 19.659 0 00-11.816-3.61c-12.212 0-19.316 9.2-19.316 18.43 0 9.24 7.104 18.45 19.316 18.45 4.223.07 8.36-1.2 11.816-3.63v3.61h7.511V6.07h-7.51v13.21zm-34.737 1.87h-7.51v31.4h7.51v-31.4zm-49.029-5.52c-12.298 0-19.327 9.2-19.327 18.45 0 9.24 7.105 18.43 19.327 18.43 12.222 0 19.326-9.2 19.326-18.45s-7.104-18.43-19.326-18.43zm71.95 29.85c-6.227 0-11.35-5.12-11.35-11.35 0-6.22 5.123-11.35 11.35-11.35 6.228 0 11.352 5.13 11.352 11.35l.002.18c0 6.06-4.933 11.08-10.994 11.17h-.36zm-71.95 0c-6.228 0-11.352-5.12-11.352-11.35 0-6.22 5.124-11.35 11.352-11.35 6.227 0 11.351 5.13 11.351 11.35l.002.18c0 6.06-4.933 11.08-10.994 11.17h-.359zm45.274-39.41c-2.076 0-3.784 1.7-3.784 3.78s1.708 3.78 3.784 3.78c2.076 0 3.784-1.7 3.784-3.78s-1.708-3.78-3.784-3.78z"/>
</svg>
