<svg xmlns="http://www.w3.org/2000/svg" fill-rule="evenodd" stroke-linejoin="round" stroke-miterlimit="2" clip-rule="evenodd" viewBox="0 0 228 93">
  <path fill="#06c" fill-rule="nonzero" d="M111.41 85.75c0 2.071-1.536 3.34-3.34 3.34-1.803 0-3.34-1.269-3.34-3.34V49.678a14.34 14.34 0 0114.362-14.361c7.95 0 14.362 6.412 14.362 14.361v12.359a14.34 14.34 0 01-14.362 14.361c-3.005 0-5.544-.935-7.682-2.872V85.75zm-25.318-9.43c-4.2 0-9.134-1.931-11.268-5.133-.466-.6-.666-1.266-.666-2 0-1.8 1.667-3.333 3.467-3.333.934 0 1.8.466 2.667 1.467 1.333 1.666 3.267 2.466 5.8 2.466 4.468 0 7.068-2.6 7.068-5.334 0-2.933-2.934-4.934-6.6-6.267-3.667-1.333-7.602-2.6-10.201-5.867-1.267-1.667-1.934-3.667-1.934-6.134 0-6.867 5.733-10.868 12.135-10.868 4.266 0 8.934 2.333 11.267 5.867.334.534.533 1.134.533 1.867 0 1.867-1.6 3.334-3.467 3.334-1 0-1.866-.534-2.666-1.6-1.4-1.934-3.267-2.934-5.667-2.934-3.468 0-5.468 1.934-5.468 4.334 0 2.467 2.934 4.134 6.6 5.467 3.668 1.4 7.602 2.801 10.202 6.334 1.267 1.8 1.933 3.934 1.933 6.467 0 7.134-6.333 11.868-13.735 11.868zM193.866 54.32c0 1.8-1.533 3.333-3.333 3.333h-18.67v4.335c0 4 3.868 7.667 8.335 7.667 2.667 0 4.8-.866 6.468-2.534.732-1 1.6-1.533 2.666-1.533 1.8 0 3.468 1.533 3.468 3.333 0 1.334-.734 2.2-1.534 3-2.734 2.934-6.467 4.4-11.068 4.4-7.8 0-15.002-6.4-15.002-14.333V49.652a14.314 14.314 0 0114.335-14.335 14.313 14.313 0 0114.335 14.335v4.667zm33.298 0c0 1.8-1.534 3.333-3.334 3.333h-18.668v4.335c0 4 3.867 7.667 8.334 7.667 2.666 0 4.8-.866 6.467-2.534.734-1 1.6-1.533 2.667-1.533 1.8 0 3.467 1.533 3.467 3.333 0 1.334-.733 2.2-1.533 3-2.734 2.934-6.467 4.4-11.068 4.4-7.801 0-15.003-6.4-15.003-14.333V49.652a14.314 14.314 0 0114.336-14.335 14.313 14.313 0 0114.335 14.335v4.667zm-68.073-9.5c-.876 0-1.685-.337-2.426-1.079l-.135-.135c-1.28-1.01-2.695-1.55-4.38-1.55-3.976 0-6.402 2.764-6.402 8.222v22.441c0 2.09-1.55 3.37-3.37 3.37s-3.37-1.28-3.37-3.37v-22.44c0-8.424 4.785-14.961 13.142-14.961 3.234 0 7.142 1.482 9.367 3.706.674.741 1.01 1.483 1.01 2.358 0 1.82-1.617 3.438-3.436 3.438zM25.548 70.935a4.585 4.585 0 11-9.17.001 4.585 4.585 0 019.17 0zm19.278 0a4.586 4.586 0 11-9.171 0 4.586 4.586 0 019.171 0zm66.584-8.898a7.64 7.64 0 007.682 7.681 7.64 7.64 0 007.682-7.681V49.678a7.64 7.64 0 00-7.682-7.681 7.64 7.64 0 00-7.682 7.681v12.359zm-69.485-.273H19.279a4.492 4.492 0 01-4.152-2.777L9.16 44.545H4.492a4.492 4.492 0 010-8.984h7.674a4.491 4.491 0 014.152 2.777l5.965 14.442H38.95l6.138-14.48a4.493 4.493 0 018.272 3.506l-7.299 17.22a4.493 4.493 0 01-4.136 2.738zm145.274-10.779v-1.333c0-4.268-3.401-7.667-7.668-7.667a7.626 7.626 0 00-7.668 7.667v1.333H187.2zm33.297 0v-1.333c0-4.268-3.4-7.667-7.667-7.667a7.625 7.625 0 00-7.667 7.667v1.333h15.334z"/>
  <path fill="#99cc26" fill-rule="nonzero" d="M31.202 92.662c-4.5 0-9.195-1.695-14.241-5.083a4.492 4.492 0 115.009-7.459c7.865 5.282 12.309 4.01 16.932.246a4.492 4.492 0 115.671 6.967c-4.363 3.553-8.766 5.329-13.371 5.329zm15.741-72.004a4.491 4.491 0 00-6.351-.128l-5.593 5.369V4.492a4.491 4.491 0 10-8.983 0v21.302l-5.382-5.242a4.492 4.492 0 00-6.269 6.436l13.008 12.67c.06.058.124.109.185.163l.098.086c.153.126.312.24.476.343l.072.042c.162.096.328.182.498.257.016.007.029.016.045.023.01.005.021.008.031.012.102.042.206.079.31.113.038.013.076.028.114.04.102.03.206.055.31.078.041.01.082.023.124.03.103.021.208.035.313.048.04.004.081.013.123.017.14.014.28.02.421.02l.014.002.036-.002c.132-.001.263-.007.394-.02.077-.006.154-.02.23-.032.065-.01.13-.016.194-.029.091-.017.182-.042.272-.065.048-.013.097-.022.144-.036.093-.027.183-.06.275-.095.043-.016.089-.029.132-.047.087-.035.172-.076.258-.116.046-.023.093-.043.139-.066.077-.041.152-.086.228-.132.052-.03.104-.06.155-.093.066-.043.13-.092.195-.139.057-.042.115-.083.17-.128.057-.046.111-.095.165-.143.042-.037.085-.07.125-.11l13.195-12.67a4.492 4.492 0 00.13-6.35z"/>
</svg>
