<svg xmlns="http://www.w3.org/2000/svg" fill-rule="evenodd" stroke-linejoin="round" stroke-miterlimit="2" clip-rule="evenodd" viewBox="0 0 440 74"><path fill="#5f8e3e" fill-rule="nonzero" d="M55.222 13.975s-.06-.324-.243-.442-.383-.14-.383-.14l-5.772-.431-4.247-4.22a1.247 1.247 0 00-.537-.232l-3.148 63.206L63.05 66.92l-7.827-52.945z"/><path fill="#95bf47" fill-rule="nonzero" d="M14.317 17.43C15.467 12.622 18.606 3.2 25.916.547c2.456-.892 4.51-.692 6.103.596.356.288.682.627.978 1.019 1.439-.112 2.775.264 3.99 1.124 1.627 1.151 2.926 3.138 3.879 5.923l2.151-.666c.112-.027.572-.124 1.023-.036l-3.148 63.206L0 64.052l5.447-42.015s.075-1.26.464-1.727c.355-.426 1.867-.855 1.867-.855l6.539-2.025zM30.259 2.909c-.864-.57-2.013-.584-3.501-.043-5.538 2.01-8.37 9.11-9.655 13.701l5.654-1.75c.883-4.538 2.904-9.81 7.502-11.908zm1.556 2.187c-3.431 1.452-5.236 5.174-6.184 8.831l7.088-2.195c.014-2.249-.19-4.785-.904-6.636zm2.443-.464c.515 1.509.815 3.378.899 5.596.009.251.015.499.019.743l3.434-1.063c-.65-2.01-1.567-3.807-2.837-4.705a3.13 3.13 0 00-1.515-.571z"/><path fill="#fff" fill-rule="nonzero" d="M28.462 43.659a13.732 13.732 0 00-2.127-2.242 21.333 21.333 0 00-2.34-1.713 15.065 15.065 0 01-1.45-1.012 6.85 6.85 0 01-1.006-.968 3.436 3.436 0 01-.58-.97 2.557 2.557 0 01-.164-1.017c.021-.475.126-.905.307-1.284a2.97 2.97 0 01.763-.99 3.765 3.765 0 011.179-.665c.46-.164.984-.267 1.561-.301a11.288 11.288 0 011.815.042c.584.06 1.138.162 1.652.288a12.932 12.932 0 012.571.927l2.728-8.127a8.025 8.025 0 00-1.465-.558c-.564-.16-1.199-.29-1.896-.379a17.24 17.24 0 00-2.232-.13c-.784.003-1.612.056-2.476.17-1.861.243-3.542.758-5.01 1.492a12.815 12.815 0 00-3.687 2.74 12.113 12.113 0 00-2.358 3.723c-.557 1.38-.89 2.913-.962 4.576a9.376 9.376 0 00.273 2.752c.217.847.552 1.628.979 2.349.431.729.956 1.399 1.55 2.02.6.627 1.27 1.205 1.981 1.735a14.99 14.99 0 011.48 1.213c.412.39.738.768.99 1.145.252.379.427.756.533 1.145.108.39.146.792.128 1.22-.018.425-.11.824-.273 1.178-.161.352-.394.66-.693.902a2.631 2.631 0 01-1.088.515 3.956 3.956 0 01-1.45.032 8.76 8.76 0 01-1.831-.498 13.486 13.486 0 01-1.711-.809 17.014 17.014 0 01-2.614-1.807L9.67 56.55a7.68 7.68 0 001.166 1.175c.47.386 1.01.76 1.608 1.108.606.354 1.272.68 1.981.967a16.433 16.433 0 002.4.76c.013.003.027.005.04.009 1.692.374 3.334.464 4.864.26 1.576-.21 3.025-.735 4.277-1.58 1.28-.865 2.341-2.057 3.11-3.575.78-1.537 1.252-3.39 1.345-5.54a9.935 9.935 0 00-.483-3.59 10.212 10.212 0 00-1.517-2.885z"/><path fill="#030405" fill-rule="nonzero" d="M247.98 28.559l-5.305 13.825c-1.263 3.347-1.894 5.305-2.589 7.388h-.125c-.127-2.021-.379-4.23-.758-7.324l-1.389-13.889h-9.155l5.241 28.347c.126.631.063 1.01-.19 1.452-1.01 1.957-2.714 3.851-4.735 5.24-1.64 1.199-3.472 1.957-4.924 2.462l2.4 7.387c1.767-.378 5.428-1.831 8.522-4.735 3.978-3.725 7.64-9.47 11.427-17.299l10.67-22.854h-9.09zm-66.988-.695c-3.472 0-6.88 1.894-9.218 5.177h-.125l.504-4.672h-7.702c-.379 3.157-1.073 7.955-1.768 11.554l-6.06 31.883h8.712l2.4-12.88h.188c1.01.632 2.968 1.136 5.114 1.136 10.23 0 16.921-10.48 16.921-21.087 0-5.871-2.589-11.111-8.966-11.111zm81.32 43.699l6.047-32.505c.756-3.969 1.323-7.45 1.701-10.711h2.582l-.944 6.523h.125c2.71-4.077 6.488-6.957 10.52-6.957 5.731 0 7.872 4.741 7.872 9.717 0 10.204-6.99 21.938-16.628 21.938-2.96 0-4.913-1.052-6.047-1.052h-.126l-2.393 13.047h-2.709zM146.9 27.864c-10.48 0-17.425 9.47-17.425 20.014 0 6.755 4.167 12.184 11.995 12.184 10.291 0 17.236-9.217 17.236-20.014 0-6.25-3.662-12.184-11.806-12.184zM88.878 40.869c-2.21-1.199-3.346-2.209-3.346-3.598 0-1.768 1.578-2.904 4.04-2.904 2.273 0 4.23.631 5.43 1.199l2.02-6.187c-1.388-.82-3.977-1.452-7.324-1.452-7.639 0-12.879 4.356-12.879 10.481 0 3.472 2.462 6.123 5.745 8.018 2.652 1.515 3.599 2.588 3.599 4.166 0 1.642-1.326 2.967-3.788 2.967-2.715.064-5.556-1.073-7.134-1.894l-2.147 6.188c1.641 1.136 4.987 2.084 8.587 2.146 7.828.063 13.447-3.851 13.447-10.795 0-3.725-2.841-6.378-6.25-8.335zM310.75 59.332c-.063-2.447.315-4.893.756-8.154h-.126c-3.465 6.523-7.306 8.383-11.275 8.383-4.598 0-7.369-3.965-7.369-9.382 0-10.33 7.37-22.391 19.085-22.391 2.141 0 4.535.268 6.11.835l-3.213 16.615c-1.07 5.668-1.448 10.832-1.323 14.094h-2.645zm-120.54.099h8.714l5.934-30.872h-8.775l-5.873 30.872zm36.808-30.936h-6.06l.315-1.451c.505-2.968 2.272-5.62 5.177-5.62a8.51 8.51 0 012.777.442l1.705-6.818c-1.01-.442-2.588-.758-4.735-.758-3.094 0-6.187.884-8.523 2.905-2.968 2.525-4.356 6.186-5.052 9.849l-.252 1.451h-4.04l-1.263 6.566h4.041l-4.609 24.37h8.713l4.61-24.37h5.997l1.2-6.566zm-106.952-.631c-3.851 0-6.881 1.831-9.217 4.609l-.127-.063 3.347-17.489h-8.713l-8.46 44.51h8.713l2.904-15.215c1.136-5.745 4.104-9.281 6.882-9.281 1.957 0 2.715 1.326 2.715 3.22 0 1.199-.127 2.652-.379 3.851l-3.283 17.425h8.712l3.41-17.993c.378-1.894.631-4.167.631-5.683 0-4.924-2.589-7.891-7.135-7.891zm286.676 31.468l3.843-20.721c.755-3.842 1.197-7.003 1.45-10.264h2.455c-.19 2.446-.442 4.077-.819 7.338h.126c1.827-4.077 4.85-7.616 8.63-7.616.376 0 .818-.124 1.132-.124l-.567 2.804a4.057 4.057 0 00-1.007-.109c-3.968 0-8.377 6.346-9.637 12.959l-2.897 15.733h-2.709zm-86.859 0l3.843-20.721c.755-3.842 1.197-7.003 1.448-10.264h2.457c-.189 2.446-.44 4.077-.819 7.338h.126c1.827-4.077 4.85-7.616 8.63-7.616.377 0 .818-.124 1.133-.124l-.567 2.804a4.067 4.067 0 00-1.008-.109c-3.968 0-8.377 6.346-9.637 12.959l-2.897 15.733h-2.709zm34.642 0l4.032-21.729c.693-3.589 1.07-6.81 1.322-9.256h2.583l-.882 6.523h.126c2.646-4.077 6.425-6.989 10.582-6.989 2.96 0 6.74 1.797 6.74 7.529 0 1.511-.252 3.362-.567 5l-3.464 18.922h-2.709l3.527-18.968c.252-1.385.442-3.028.442-4.602 0-3.149-1.26-5.514-4.977-5.514-4.03 0-9.763 5.377-11.086 12.684l-2.96 16.4h-2.709zm-5.416-37.61l-1.323 6.625h7.118l-.504 2.446h-7.118l-3.338 17.946c-.378 2.015-.63 3.556-.63 5.193 0 1.764.82 2.817 2.708 2.817 1.008 0 1.638-.071 2.205-.261l.19 2.201c-.82.252-1.89.44-2.96.44-3.592 0-4.978-2.395-4.978-4.915 0-1.638.19-3.144.694-5.475l3.401-17.946h-4.347l.442-2.446h4.408l1.008-5.423 3.024-1.202zm73.505 33.31c1.071.819 3.087 1.7 5.292 1.7 3.97 0 6.676-2.834 6.676-6.298 0-3.023-1.259-4.85-4.094-6.677-3.024-1.952-4.66-4.661-4.66-7.495 0-4.725 3.842-8.567 9.196-8.567 2.078 0 4.094.63 4.976 1.323l-1.009 2.331c-.944-.568-2.519-1.26-4.282-1.26-3.654 0-6.11 2.583-6.11 5.669 0 2.834 1.637 4.409 4.094 6.11 2.897 1.952 4.661 4.723 4.661 7.809 0 6.11-4.472 9.449-9.7 9.449-2.709 0-5.102-1.008-6.11-1.826l1.07-2.268zm-21.73 1.827c-1.575 1.07-4.472 2.267-8.25 2.267-7.056 0-9.513-5.543-9.513-11.338 0-8.692 6.11-20.093 14.74-20.093 4.976 0 7.054 3.213 7.054 6.615 0 7.683-8.818 9.824-18.707 9.762-.315 1.386-.378 5.354.252 7.559 1.071 3.401 3.401 5.101 6.614 5.101 3.338 0 5.606-1.196 6.991-2.015l.82 2.142zm-132.903-1.764c1.386 1.07 3.402 1.701 5.858 1.701 8 0 13.542-11.338 13.542-19.086 0-3.59-1.385-7.621-5.858-7.621-4.282 0-9.889 5.48-11.589 14.613l-1.953 10.393zm46.8-24.565c-.693-.252-1.763-.441-3.653-.441-8.692 0-15.495 9.699-15.558 19.211-.063 3.968 1.071 7.496 5.165 7.496 4.913 0 10.456-7.37 11.904-15.181l2.142-11.085zM172.66 53.497c-1.579 0-2.652-.506-3.599-1.263l1.452-8.145c1.01-5.429 3.851-9.028 6.882-9.028 2.652 0 3.472 2.462 3.472 4.798 0 5.62-3.346 13.638-8.207 13.638zm-30.053-.127c-2.967 0-4.23-2.525-4.23-5.681 0-4.988 2.59-13.133 7.324-13.133 3.093 0 4.103 2.652 4.103 5.24 0 5.367-2.588 13.574-7.197 13.574zM402.19 34.372c0-2.772-1.944-4.283-4.779-4.283-4.66 0-8.79 5.038-10.68 11.59 7.873.063 15.46-1.26 15.46-7.244v-.063zM202.396 15.363c-2.778 0-4.987 2.21-4.987 5.051 0 2.589 1.64 4.356 4.103 4.356h.126c2.715 0 5.051-1.83 5.114-5.05 0-2.525-1.705-4.357-4.356-4.357z"/></svg>