<svg xmlns="http://www.w3.org/2000/svg" fill-rule="evenodd" stroke-linejoin="round" stroke-miterlimit="2" clip-rule="evenodd" viewBox="0 0 390 79">
  <path fill="#7f54b3" d="M119.792 0H12.259C5.457 0-.055 5.564 0 12.314v41.047c0 6.806 5.508 12.314 12.314 12.314h50.931l23.28 12.963-5.295-12.963h38.562c6.806 0 12.314-5.508 12.314-12.314V12.314C132.106 5.508 126.598 0 119.792 0zM9.992 9.505c-1.512.107-2.648.649-3.403 1.674-.756.973-1.025 2.216-.863 3.62 3.185 20.253 6.157 33.916 8.911 40.992 1.08 2.592 2.323 3.834 3.78 3.727 2.27-.162 4.97-3.296 8.155-9.398 1.674-3.455 4.269-8.642 7.779-15.555 2.916 10.209 6.913 17.878 11.935 23.01 1.404 1.456 2.864 2.105 4.265 1.998 1.243-.11 2.216-.756 2.865-1.946.538-1.025.756-2.213.649-3.566-.324-4.914.162-11.772 1.512-20.576 1.404-9.074 3.13-15.607 5.239-19.497.431-.81.593-1.618.538-2.592-.107-1.242-.649-2.267-1.674-3.078-1.025-.811-2.16-1.188-3.403-1.08-1.567.106-2.754.862-3.565 2.374-3.348 6.105-5.722 15.99-7.127 29.705-2.054-5.183-3.783-11.285-5.132-18.471-.594-3.186-2.05-4.697-4.428-4.535-1.622.107-2.972 1.187-4.052 3.24l-11.828 22.52c-1.943-7.83-3.779-17.39-5.453-28.676-.38-2.81-1.946-4.104-4.7-3.89zm104.074 3.89c3.835.81 6.7 2.86 8.642 6.264 1.73 2.916 2.592 6.426 2.592 10.64 0 5.564-1.401 10.64-4.21 15.286-3.241 5.401-7.455 8.1-12.694 8.1-.918 0-1.888-.107-2.917-.324-3.834-.811-6.695-2.861-8.642-6.264-1.726-2.972-2.592-6.537-2.592-10.696 0-5.56 1.405-10.637 4.214-15.23 3.296-5.402 7.507-8.1 12.69-8.1.919 0 1.892.106 2.917.324zM111.8 42.613c1.998-1.78 3.347-4.428 4.107-7.993.214-1.242.376-2.592.376-3.996 0-1.567-.325-3.241-.973-4.915-.808-2.105-1.888-3.24-3.186-3.51-1.943-.38-3.834.7-5.615 3.348a17.471 17.471 0 00-2.865 6.426c-.27 1.243-.376 2.592-.376 3.945 0 1.563.324 3.237.97 4.915.81 2.105 1.891 3.237 3.189 3.51 1.35.269 2.806-.325 4.373-1.73zM88.844 19.66c-1.943-3.403-4.86-5.453-8.639-6.264a14.099 14.099 0 00-2.916-.325c-5.187 0-9.398 2.7-12.694 8.1-2.81 4.594-4.21 9.671-4.21 15.231 0 4.159.862 7.724 2.591 10.696 1.943 3.403 4.804 5.453 8.639 6.264 1.028.217 1.998.324 2.92.324 5.235 0 9.45-2.699 12.69-8.1 2.81-4.645 4.214-9.722 4.214-15.286 0-4.214-.866-7.724-2.595-10.64zM82.04 34.62c-.756 3.565-2.108 6.213-4.107 7.993-1.563 1.405-3.023 1.999-4.373 1.73-1.297-.273-2.378-1.405-3.185-3.51-.649-1.678-.973-3.352-.973-4.915 0-1.353.107-2.702.376-3.945a17.471 17.471 0 012.864-6.426c1.781-2.647 3.673-3.728 5.616-3.348 1.297.27 2.378 1.405 3.189 3.51.645 1.674.97 3.348.97 4.915 0 1.404-.107 2.754-.377 3.996z"/>
  <path fill-rule="nonzero" d="M145.77 19.172c-3.617 3.565-5.401 8.104-5.401 13.612 0 5.888 1.784 10.692 5.35 14.313 3.56 3.617 8.206 5.453 13.987 5.453 1.674 0 3.562-.27 5.616-.863v-8.75c-1.892.54-3.51.812-4.915.812-2.861 0-5.132-.973-6.858-2.865-1.729-1.943-2.592-4.535-2.592-7.83 0-3.08.863-5.616 2.537-7.563 1.73-1.998 3.834-2.968 6.426-2.968 1.674 0 3.459.27 5.402.808v-8.75c-1.781-.486-3.78-.7-5.888-.7-5.509-.055-10.044 1.726-13.664 5.291zm37.485-5.346c-4.97 0-8.86 1.674-11.67 4.97-2.805 3.292-4.158 7.938-4.158 13.878 0 6.43 1.405 11.344 4.159 14.747 2.754 3.403 6.806 5.129 12.1 5.129 5.129 0 9.074-1.726 11.828-5.129 2.754-3.403 4.159-8.21 4.159-14.368 0-6.157-1.405-10.91-4.214-14.257-2.862-3.296-6.913-4.97-12.204-4.97zm4.266 28.083c-.974 1.516-2.43 2.271-4.266 2.271-1.73 0-3.027-.755-3.945-2.27-.918-1.512-1.35-4.536-1.35-9.126 0-7.075 1.781-10.585 5.402-10.585 3.779 0 5.722 3.562 5.722 10.747-.052 4.428-.594 7.452-1.563 8.963zm38.83-27.058l-1.943 8.266a191.101 191.101 0 00-1.404 6.478l-1.08 5.726c-1.026-5.726-2.43-12.528-4.215-20.47h-12.528l-4.7 36.78h9.397l2.54-25.328 6.427 25.329h6.699l6.153-25.274 2.648 25.274h9.829l-4.966-36.781H226.35zm44.992 0l-1.947 8.266c-.486 2.105-.97 4.266-1.404 6.478l-1.08 5.726c-1.026-5.726-2.43-12.528-4.211-20.47h-12.532l-4.697 36.78h9.398l2.536-25.328 6.427 25.329h6.699l6.102-25.274 2.647 25.274h9.83l-4.97-36.781h-12.798zm30.568 22.254h8.804v-7.617h-8.804v-6.75h10.154v-7.832h-20.09v36.781h20.145v-7.831h-10.209v-6.75zm38.182-5.833c1.029-1.677 1.567-3.403 1.567-5.187 0-3.455-1.35-6.209-4.048-8.207-2.703-1.998-6.427-3.027-11.072-3.027H314.98v36.78h9.937V34.89h.162l8.048 16.743h10.479l-7.942-16.58c1.891-.863 3.403-2.106 4.428-3.78zm-15.227-.597v-8.749c2.374.055 4.048.435 5.077 1.19 1.025.757 1.511 1.944 1.511 3.673 0 2.537-2.215 3.835-6.588 3.886zm22.627-11.503c-3.617 3.565-5.398 8.104-5.398 13.612 0 5.888 1.78 10.692 5.346 14.313 3.565 3.617 8.207 5.453 13.988 5.453 1.674 0 3.565-.27 5.615-.863v-8.75c-1.887.54-3.51.812-4.914.812-2.861 0-5.129-.973-6.858-2.865-1.73-1.943-2.592-4.535-2.592-7.83 0-3.08.863-5.616 2.537-7.563 1.729-1.998 3.834-2.968 6.426-2.968 1.674 0 3.458.27 5.401.808v-8.75c-1.78-.486-3.779-.7-5.884-.7-5.457-.055-10.047 1.726-13.667 5.291zm32.245 24.629V37.05h8.801v-7.614h-8.8v-6.754h10.205v-7.831h-20.09v36.78h20.145v-7.83h-10.26z"/>
</svg>
