<?xml version="1.0" encoding="UTF-8" standalone="no"?>
<!DOCTYPE svg PUBLIC "-//W3C//DTD SVG 1.1//EN" "http://www.w3.org/Graphics/SVG/1.1/DTD/svg11.dtd">
<svg width="100%" height="100%" viewBox="0 0 198 19" version="1.1" xmlns="http://www.w3.org/2000/svg" xmlns:xlink="http://www.w3.org/1999/xlink" xml:space="preserve" xmlns:serif="http://www.serif.com/" style="fill-rule:evenodd;clip-rule:evenodd;stroke-linejoin:round;stroke-miterlimit:2;">
    <path d="M2.507,14.218C3.012,14.479 3.561,14.706 4.156,14.898C5.229,15.244 6.302,15.417 7.375,15.417C8.568,15.417 9.451,15.239 10.022,14.885C10.593,14.53 10.878,14.059 10.878,13.47C10.878,13.038 10.71,12.679 10.372,12.393C10.035,12.108 9.602,11.878 9.075,11.705C8.547,11.532 7.833,11.342 6.933,11.134C5.549,10.806 4.416,10.477 3.533,10.148C2.651,9.819 1.894,9.292 1.262,8.565C0.631,7.838 0.315,6.869 0.315,5.658C0.315,4.603 0.6,3.647 1.171,2.79C1.742,1.934 2.603,1.254 3.754,0.753C4.905,0.251 6.31,0 7.972,0C9.131,0 10.264,0.138 11.372,0.415C12.475,0.691 13.442,1.088 14.27,1.604L11.705,4.17C10.452,3.639 9.199,3.374 7.946,3.374C6.769,3.374 5.899,3.564 5.337,3.945C4.775,4.326 4.494,4.827 4.494,5.45C4.494,6.073 4.818,6.536 5.467,6.839C6.116,7.142 7.106,7.44 8.439,7.734C9.823,8.063 10.956,8.392 11.839,8.721C12.721,9.049 13.478,9.568 14.11,10.278C14.741,10.987 15.057,11.948 15.057,13.159C15.057,14.197 14.767,15.144 14.188,16.001C13.608,16.857 12.738,17.536 11.579,18.038C10.42,18.54 9.01,18.791 7.349,18.791C5.912,18.791 4.524,18.596 3.183,18.207C1.868,17.825 0.807,17.331 0,16.725L2.507,14.218ZM49.685,4.449C48.719,3.871 47.639,3.582 46.446,3.582C45.287,3.582 44.257,3.824 43.357,4.308C42.458,4.793 41.757,5.476 41.255,6.359C40.753,7.241 40.502,8.253 40.502,9.395C40.502,10.52 40.753,11.524 41.255,12.406C41.757,13.289 42.453,13.976 43.344,14.47C44.235,14.963 45.252,15.209 46.394,15.209C47.605,15.209 48.695,14.95 49.664,14.431L49.664,9.11L53.505,9.11L53.505,16.481C52.519,17.225 51.377,17.796 50.079,18.194C48.782,18.592 47.475,18.791 46.16,18.791C44.274,18.791 42.579,18.389 41.073,17.584C39.568,16.779 38.387,15.663 37.531,14.236C36.674,12.808 36.246,11.195 36.246,9.395C36.246,7.596 36.674,5.982 37.531,4.555C38.387,3.127 39.577,2.011 41.099,1.207C42.622,0.402 44.335,0 46.238,0C47.83,0 49.275,0.268 50.573,0.805C51.217,1.071 51.81,1.397 52.352,1.783L49.685,4.449ZM128.601,9.187L131.811,9.187L131.811,16.468C130.872,17.216 129.776,17.79 128.523,18.191C127.27,18.591 125.983,18.791 124.66,18.791C122.799,18.791 121.12,18.386 119.623,17.577C118.127,16.768 116.952,15.65 116.1,14.224C115.247,12.797 114.821,11.188 114.821,9.395C114.821,7.603 115.247,5.994 116.1,4.567C116.952,3.141 118.131,2.023 119.636,1.214C121.141,0.405 122.833,0 124.712,0C126.244,0 127.635,0.252 128.888,0.757C130.141,1.261 131.194,2.001 132.046,2.975L129.906,5.063C128.514,3.671 126.835,2.975 124.869,2.975C123.581,2.975 122.437,3.245 121.437,3.784C120.437,4.324 119.654,5.081 119.088,6.055C118.523,7.029 118.24,8.143 118.24,9.395C118.24,10.613 118.523,11.71 119.088,12.684C119.654,13.658 120.437,14.424 121.437,14.981C122.437,15.537 123.573,15.816 124.843,15.816C126.27,15.816 127.522,15.503 128.601,14.876L128.601,9.187ZM106.235,0.261L109.627,0.261L109.627,18.53L106.235,18.53L106.235,0.261ZM137.84,0.261L141.233,0.261L141.233,18.53L137.84,18.53L137.84,0.261ZM184.687,0.261L188.08,0.261L188.08,15.659L197.632,15.659L197.632,18.53L184.687,18.53L184.687,0.261ZM151.437,3.132L145.382,3.132L145.382,0.261L160.885,0.261L160.885,3.132L154.83,3.132L154.83,18.53L151.437,18.53L151.437,3.132ZM83.111,0.261L91.098,0.261C93.046,0.261 94.777,0.639 96.291,1.396C97.805,2.153 98.979,3.223 99.814,4.606C100.65,5.99 101.067,7.586 101.067,9.395C101.067,11.205 100.65,12.801 99.814,14.185C98.979,15.568 97.805,16.638 96.291,17.395C94.777,18.151 93.046,18.53 91.098,18.53L83.111,18.53L83.111,0.261ZM175.422,14.302L166.287,14.302L164.486,18.53L160.989,18.53L169.21,0.261L172.551,0.261L180.798,18.53L177.249,18.53L175.422,14.302ZM35.165,15.424L32.116,18.473L30.51,14.586L22.075,14.586L20.466,18.479L16.157,18.479L24.255,0.311L28.408,0.311L35.165,15.424ZM70.556,0.311L67.182,3.686L61.034,3.686L61.034,7.631L69.469,7.631L69.469,10.901L61.034,10.901L61.034,15.105L70.923,15.105L70.923,18.479L56.856,18.479L56.856,0.311L70.556,0.311ZM90.941,15.659C92.281,15.659 93.459,15.402 94.477,14.889C95.495,14.376 96.278,13.645 96.826,12.697C97.374,11.749 97.648,10.648 97.648,9.395C97.648,8.143 97.374,7.042 96.826,6.094C96.278,5.146 95.495,4.415 94.477,3.902C93.459,3.388 92.281,3.132 90.941,3.132L86.504,3.132L86.504,15.659L90.941,15.659ZM174.3,11.64L170.855,3.654L167.436,11.64L174.3,11.64ZM29.186,11.394L26.305,4.438L23.424,11.394L29.186,11.394Z" style="fill:rgb(0,204,255);fill-rule:nonzero;"/>
</svg>
