<svg xmlns="http://www.w3.org/2000/svg" fill-rule="evenodd" stroke-linecap="round" stroke-linejoin="round" stroke-miterlimit="1.5" clip-rule="evenodd" viewBox="0 0 102 102"><circle cx="1410.44" cy="1311.77" r="90.445" fill="none" stroke="#0cf" stroke-width="3.62" transform="translate(-728.72 -674.178) scale(.55282)"/><path fill="#fff" fill-rule="nonzero" d="M79.635 49.272a.856.856 0 00-.933.186l-2.565 2.564V34.587a.856.856 0 00-.856-.856h-6.578l2.388-2.388v-.001l2.302-2.301a2.594 2.594 0 00.764-1.846c0-.698-.271-1.353-.764-1.846l-2.661-2.661a2.594 2.594 0 00-1.846-.765c-.698 0-1.353.272-1.846.765L55.997 33.73H29.42v-8.47a.856.856 0 00-.856-.857 6.742 6.742 0 00-6.734 6.734v36.366c0 .063.007.125.02.184.119 1.576.8 3.04 1.94 4.15a6.448 6.448 0 004.526 1.842h26.163l-4.928 4.928a.856.856 0 00.606 1.462h29.15a.856.856 0 00.856-.857v-29.15a.856.856 0 00-.528-.79zM78.45 59.684h-1.58a.856.856 0 100 1.713h1.58v2.58h-1.58a.856.856 0 100 1.712h1.58v2.58h-1.58a.856.856 0 100 1.712h1.58v2.58h-1.58a.856.856 0 100 1.713h1.58v4.083H52.224l8.648-8.648a.856.856 0 10-1.21-1.21l-3.47 3.47H28.315a4.746 4.746 0 01-4.77-4.62c.005-.163.018-.324.038-.484v-.002a4.83 4.83 0 01.035-.227l.004-.025a4.953 4.953 0 01.204-.77l.031-.089c.021-.056.043-.112.066-.167l.02-.047c.029-.069.06-.136.091-.203l.004-.008a5.04 5.04 0 013.504-2.74l.013-.003c.07-.015.142-.027.214-.038l.036-.007c.065-.01.131-.017.197-.025l.055-.006c.064-.007.128-.011.192-.015l.06-.004c.085-.005.17-.007.254-.007a.856.856 0 00.856-.856v-6.208a.856.856 0 10-1.712 0v5.406a6.687 6.687 0 00-4.166 2.197V31.138a5.03 5.03 0 014.166-4.948v25.803a.856.856 0 001.712 0v-16.55h24.865l-4.734 4.733a.856.856 0 001.211 1.211l6.195-6.194v-.001l5.604-5.604 3.931 3.931-.46.462h-.002L48.766 51.247l-3.931-3.931 3.403-3.403a.856.856 0 00-1.21-1.211l-4.01 4.008a.86.86 0 00-.06.068l-.017.024a.934.934 0 00-.035.049l-.018.03a.81.81 0 00-.064.132l-.007.018-1.668 4.725-1.138 3.222a.866.866 0 00-.033.13H37.13a.856.856 0 100 1.713h23.711a.856.856 0 100-1.713H43.829l5.222-1.843.013-.005a.886.886 0 00.06-.025l.023-.011a.83.83 0 00.06-.034l.02-.011a.833.833 0 00.06-.043l.015-.011a.86.86 0 00.07-.062L66.99 35.443h7.435v18.292L62.178 65.982a.856.856 0 101.21 1.21L78.452 52.13v7.554zm-5.006 3.312a.856.856 0 00-.933.186l-9.357 9.356A.856.856 0 0063.761 74h9.357a.856.856 0 00.856-.856v-9.357a.856.856 0 00-.529-.79zm-7.618 9.292l6.434-6.434v6.434h-6.434zM47.2 52.1l-2.452.866-1.634-1.634.865-2.452L47.2 52.1zm18.143-25.295l3.931 3.932-1.57 1.57-3.932-3.93 1.571-1.572zm2.908-2.907a.9.9 0 011.27 0l2.66 2.66a.9.9 0 010 1.271l-1.696 1.697-3.931-3.931 1.697-1.697z"/></svg>