<?xml version="1.0" encoding="UTF-8" standalone="no"?>
<!DOCTYPE svg PUBLIC "-//W3C//DTD SVG 1.1//EN" "http://www.w3.org/Graphics/SVG/1.1/DTD/svg11.dtd">
<svg width="100%" height="100%" viewBox="0 0 102 102" version="1.1" xmlns="http://www.w3.org/2000/svg" xmlns:xlink="http://www.w3.org/1999/xlink" xml:space="preserve" xmlns:serif="http://www.serif.com/" style="fill-rule:evenodd;clip-rule:evenodd;stroke-linecap:round;stroke-linejoin:round;stroke-miterlimit:1.5;">
    <g transform="matrix(0.552821,0,0,0.552821,-728.724,-674.175)">
        <circle cx="1410.44" cy="1311.77" r="90.445" style="fill:none;stroke:rgb(0,204,255);stroke-width:3.62px;"/>
    </g>
    <g transform="matrix(0.165839,0,0,0.165839,11.1441,7.4315)">
        <path d="M466.724,107.928C466.014,105.477 464.016,103.601 461.524,103.048L418.624,93.356L408.932,50.456C408.215,47.276 405.367,44.999 402.107,44.999C400.25,44.999 398.468,45.738 397.156,47.052L347.816,96.4C316.694,77.62 281.025,67.692 244.676,67.692C135.161,67.692 45.044,157.809 45.044,267.324C45.044,376.839 135.161,466.956 244.676,466.956C354.191,466.956 444.308,376.839 444.308,267.324C444.308,230.975 434.38,195.306 415.6,164.184L464.96,114.824C466.757,113.02 467.434,110.373 466.724,107.928ZM430.3,267.348C430.286,369.169 346.497,452.946 244.676,452.946C142.846,452.946 59.052,369.153 59.052,267.322C59.052,165.492 142.846,81.698 244.676,81.698C277.301,81.698 309.357,90.3 337.6,106.632L314.94,129.292C314.745,129.514 314.565,129.747 314.4,129.992C292.723,118.956 268.739,113.202 244.415,113.202C159.792,113.202 90.159,182.836 90.159,267.458C90.159,352.081 159.792,421.714 244.415,421.714C329.037,421.714 398.671,352.081 398.671,267.458C398.671,243.204 392.95,219.289 381.976,197.66C382.233,197.478 382.478,197.279 382.708,197.064L405.368,174.404C421.731,202.641 430.334,234.712 430.3,267.348ZM365.364,196.492C377.923,217.931 384.544,242.334 384.544,267.18C384.544,343.901 321.412,407.032 244.692,407.032C167.971,407.032 104.84,343.901 104.84,267.18C104.84,190.46 167.971,127.328 244.692,127.328C269.584,127.328 294.03,133.974 315.496,146.576L322.868,179.232L315.796,186.304C296.074,168.986 270.706,159.428 244.46,159.428C185.151,159.428 136.348,208.232 136.348,267.54C136.348,326.849 185.151,375.652 244.46,375.652C303.768,375.652 352.572,326.849 352.572,267.54C352.572,241.294 343.014,215.926 325.696,196.204L332.768,189.132L365.364,196.492ZM274.752,267.348C274.752,267.385 274.752,267.422 274.752,267.46C274.752,284.033 261.114,297.672 244.54,297.672C227.966,297.672 214.328,284.033 214.328,267.46C214.328,250.886 227.966,237.248 244.54,237.248C250.13,237.248 255.611,238.799 260.372,241.728L239.7,262.4C238.335,263.718 237.564,265.537 237.564,267.434C237.564,271.274 240.724,274.434 244.564,274.434C246.462,274.434 248.281,273.662 249.6,272.296L270.272,251.624C273.198,256.346 274.75,261.793 274.752,267.348ZM270.448,231.652C262.894,226.18 253.8,223.233 244.473,223.233C220.181,223.233 200.193,243.222 200.193,267.513C200.193,291.804 220.181,311.793 244.473,311.793C268.764,311.793 288.753,291.804 288.753,267.513C288.753,258.191 285.809,249.103 280.344,241.552L315.776,206.12C330.461,223.181 338.544,244.96 338.544,267.471C338.544,319.062 296.091,361.515 244.5,361.515C192.909,361.515 150.456,319.062 150.456,267.471C150.456,215.88 192.909,173.427 244.5,173.427C267.024,173.427 288.815,181.519 305.88,196.22L270.448,231.652ZM401.824,158.148L375.552,184.416L371.612,183.528L371.46,183.492L336.4,175.6L327.564,136.468L398.092,65.928L405.96,100.752C406.554,103.383 408.617,105.446 411.248,106.04L446.072,113.908L401.824,158.148Z" style="fill:white;fill-rule:nonzero;"/>
    </g>
</svg>
