<?xml version="1.0" encoding="UTF-8" standalone="no"?>
<!DOCTYPE svg PUBLIC "-//W3C//DTD SVG 1.1//EN" "http://www.w3.org/Graphics/SVG/1.1/DTD/svg11.dtd">
<svg width="100%" height="100%" viewBox="0 0 102 102" version="1.1" xmlns="http://www.w3.org/2000/svg" xmlns:xlink="http://www.w3.org/1999/xlink" xml:space="preserve" xmlns:serif="http://www.serif.com/" style="fill-rule:evenodd;clip-rule:evenodd;stroke-linecap:round;stroke-linejoin:round;stroke-miterlimit:1.5;">
    <g transform="matrix(1,0,0,1,-1780.78,-1439)">
        <g transform="matrix(0.552821,0,0,0.552821,1052.06,764.825)">
            <circle cx="1410.44" cy="1311.77" r="90.445" style="fill:none;stroke:rgb(0,204,255);stroke-width:3.62px;"/>
        </g>
        <g transform="matrix(0.121992,0,0,0.121992,1803.87,1462.08)">
            <path d="M439.48,167.086L439.48,55.837C439.48,38.027 424.99,23.537 407.18,23.537L32.3,23.537C14.489,23.537 0,38.027 0,55.837L0,282.467C0,300.277 14.49,314.767 32.3,314.767L138.543,314.767L126.381,327.857L108.16,327.857C104.018,327.857 100.66,331.215 100.66,335.357C100.66,339.499 104.018,342.857 108.16,342.857L212.521,342.857L212.521,415.191C212.521,425.64 221.022,434.142 231.472,434.142L312.099,434.142C322.548,434.142 331.05,425.641 331.05,415.191L331.05,399.957L431.99,399.957C446.156,399.957 457.68,388.428 457.68,374.257L457.68,191.667C457.68,180.104 450.006,170.303 439.48,167.086ZM442.68,191.667L442.68,193.716L270.19,193.716L270.19,191.667C270.19,185.767 274.99,180.967 280.89,180.967L431.99,180.967C437.885,180.968 442.68,185.768 442.68,191.667ZM312.099,255.031L270.19,255.031L270.19,208.716L442.68,208.716L442.68,357.207L331.05,357.207L331.05,273.981C331.05,263.532 322.548,255.031 312.099,255.031ZM316.051,283.84L227.522,283.84L227.522,273.982C227.522,271.804 229.294,270.031 231.473,270.031L312.1,270.031C314.278,270.031 316.051,271.803 316.051,273.982L316.051,283.84ZM424.479,63.337L424.479,165.967L280.889,165.967C266.718,165.967 255.189,177.496 255.189,191.667L255.189,255.031L231.471,255.031C221.03,255.031 212.535,263.519 212.522,273.957L14.999,273.957L14.999,63.337L424.479,63.337ZM227.52,298.84L316.048,298.84L316.048,390.335L227.52,390.335L227.52,298.84ZM32.299,38.537L407.179,38.537C414.029,38.537 419.944,42.549 422.744,48.337L16.733,48.337C19.534,42.549 25.449,38.537 32.299,38.537ZM16.274,288.958L212.521,288.958L212.521,299.768L32.299,299.768C25.056,299.767 18.847,295.288 16.274,288.958ZM146.856,327.857L159.018,314.767L212.521,314.767L212.521,327.857L146.856,327.857ZM312.098,419.143L231.471,419.143C229.293,419.143 227.52,417.371 227.52,415.192L227.52,405.335L316.048,405.335L316.048,415.192C316.049,417.37 314.276,419.143 312.098,419.143ZM431.989,384.958L331.049,384.958L331.049,372.208L442.679,372.208L442.679,374.258C442.679,380.157 437.884,384.958 431.989,384.958Z" style="fill:white;fill-rule:nonzero;"/>
        </g>
    </g>
</svg>
