<svg xmlns="http://www.w3.org/2000/svg" fill-rule="evenodd" stroke-linecap="round" stroke-linejoin="round" stroke-miterlimit="1.5" clip-rule="evenodd" viewBox="0 0 102 102"><circle cx="1410.44" cy="1311.77" r="90.445" fill="none" stroke="#0cf" stroke-width="3.62" transform="translate(-728.724 -674.175) scale(.55282)"/><path fill="#fff" fill-rule="nonzero" d="M27.25 74.41a4.508 4.508 0 004.503 4.503h23.414a4.508 4.508 0 004.502-4.502v-4.503H27.25v4.503zm1.801-2.701h28.817v2.702a2.705 2.705 0 01-2.701 2.701H31.753a2.705 2.705 0 01-2.702-2.701v-2.702zm18.911 1.801h-9.005v1.801h9.005V73.51zm35.121-13.67v-6.88l-4.441-.887c-.104-.26-.218-.518-.342-.772l-1.62.788c.17.35.32.706.442 1.063l.169.487 3.991.798v3.925l-3.991.799-.17.487a9.702 9.702 0 01-.44 1.063l-.227.463 2.26 3.39-2.777 2.776-3.39-2.259-.463.226c-.348.17-.706.319-1.063.441l-.487.17-.797 3.99h-3.926l-.799-3.991-.487-.17a9.702 9.702 0 01-1.063-.44L63 65.08l-3.39 2.259-3.299-3.298-1.273 1.273 4.343 4.343 3.769-2.513c.098.042.197.084.296.124l.89 4.44h6.88l.887-4.44c.1-.04.198-.082.296-.124l3.77 2.513 4.865-4.864-2.514-3.77c.043-.098.084-.197.124-.296l4.44-.887zM29.051 30.284h28.817v1.801h1.801v-4.502a4.508 4.508 0 00-4.502-4.503H31.753a4.508 4.508 0 00-4.503 4.503v40.524h1.801V30.284zm14.409 34.22h-1.801v1.802h1.8v-1.801zm0-3.601h-1.801v1.8h1.8v-1.8zm24.314-9.906a5.409 5.409 0 00-5.403 5.403 5.409 5.409 0 005.403 5.403 5.409 5.409 0 005.403-5.403 5.409 5.409 0 00-5.403-5.403zm-13.258-2.99l2.513 3.769c-.042.098-.084.197-.123.296l-4.441.888v6.88l4.441.888c.104.26.218.518.342.77l1.62-.787a9.528 9.528 0 01-.441-1.063l-.17-.487-3.99-.798v-3.926l3.99-.8.17-.486c.123-.357.272-.714.44-1.063l.227-.465-2.26-3.387 2.777-2.777 3.388 2.259.465-.225a9.7 9.7 0 011.065-.443l.485-.17.796-3.988h3.927l.798 3.99.486.168c.357.125.716.274 1.064.444l.465.225 3.388-2.259 3.299 3.299 1.273-1.274-4.343-4.342-3.77 2.513a10.7 10.7 0 00-.295-.123l-.889-4.442h-6.879l-.888 4.441c-.099.04-.198.08-.295.123l-3.77-2.513-4.865 4.865zm13.258 11.995a3.606 3.606 0 01-3.602-3.602 3.606 3.606 0 013.602-3.602 3.606 3.606 0 013.602 3.602 3.606 3.606 0 01-3.602 3.602zM43.46 57.3h-1.801v1.801h1.8v-1.8zm2.296-5.088c.166-.063.33-.132.494-.207l2.792 1.862 3.591-3.592-1.861-2.791c.075-.165.144-.33.207-.495l3.287-.657v-5.08l-3.287-.657a9.513 9.513 0 00-.447-.982l-1.593.838c.208.397.377.8.5 1.194l.159.511 2.867.574v2.125l-2.868.574-.16.51a7.14 7.14 0 01-.5 1.194l-.248.474 1.626 2.439-1.503 1.503-2.438-1.627-.473.249a7.192 7.192 0 01-1.195.5l-.51.16-.573 2.867h-2.127l-.573-2.867-.51-.16a7.192 7.192 0 01-1.195-.5l-.473-.249-2.438 1.627-2.025-2.026-1.273 1.274 3.069 3.069 2.792-1.862c.164.075.328.144.494.207l.657 3.287H45.1l.656-3.286zM42.559 39.29a4.508 4.508 0 00-4.503 4.502 4.508 4.508 0 004.503 4.503 4.508 4.508 0 004.503-4.503 4.508 4.508 0 00-4.503-4.502zm-11.707 1.963v5.079l3.287.657c.127.329.277.658.447.983l1.594-.839a7.184 7.184 0 01-.5-1.194l-.16-.51-2.867-.574V42.73l2.868-.574.16-.51a7.14 7.14 0 01.5-1.195l.248-.473-1.625-2.439 1.503-1.503 2.44 1.626.472-.25a7.214 7.214 0 011.193-.499l.51-.16.574-2.867h2.126l.573 2.868.51.16c.397.123.8.292 1.193.499l.473.25 2.44-1.627 2.025 2.025 1.273-1.273-3.068-3.07-2.792 1.861a9.287 9.287 0 00-.495-.207l-.656-3.287H40.02l-.658 3.287c-.165.064-.33.133-.494.207l-2.793-1.86-3.59 3.59 1.861 2.792c-.075.165-.144.33-.207.494l-3.287.658zm11.707 5.24a2.705 2.705 0 01-2.701-2.7 2.705 2.705 0 012.701-2.702 2.705 2.705 0 012.702 2.701 2.705 2.705 0 01-2.702 2.702zm26.116-9.004h-1.801v1.8h1.8v-1.8zm0-3.603h-1.801v1.802h1.8v-1.802zm0-3.602h-1.801v1.801h1.8v-1.8zM29.05 27.583a2.705 2.705 0 012.702-2.702h23.414a2.705 2.705 0 012.701 2.702v.9H29.051v-.9z"/></svg>