<svg xmlns="http://www.w3.org/2000/svg" fill-rule="evenodd" stroke-linecap="round" stroke-linejoin="round" stroke-miterlimit="1.5" clip-rule="evenodd" viewBox="0 0 102 102"><circle cx="1410.44" cy="1311.77" r="90.445" fill="none" stroke="#0cf" stroke-width="3.62" transform="translate(-728.72 -674.175) scale(.55282)"/><path fill="#fff" fill-rule="nonzero" d="M76.703 43.463V29.892a3.945 3.945 0 00-3.94-3.94H27.03a3.945 3.945 0 00-3.94 3.94v27.647a3.945 3.945 0 003.94 3.94h12.961l-1.484 1.597h-2.222a.915.915 0 000 1.83h12.73v8.824a2.315 2.315 0 002.313 2.312h9.836a2.315 2.315 0 002.311-2.312v-1.858H75.79a3.138 3.138 0 003.134-3.136V46.462a3.14 3.14 0 00-2.22-2.999zm.39 2.999v.25H56.051v-.25c0-.72.586-1.305 1.305-1.305H75.79c.72 0 1.304.585 1.304 1.305zm-15.93 7.73h-5.112v-5.65h21.042v18.114H63.475V56.503a2.314 2.314 0 00-2.311-2.311zm.483 3.514h-10.8v-1.202c0-.266.216-.482.482-.482h9.836c.265 0 .482.216.482.482v1.202zm13.227-26.9v12.52H57.356a3.139 3.139 0 00-3.135 3.136v7.73h-2.893a2.314 2.314 0 00-2.312 2.309H24.92V30.807h49.953zm-24.027 28.73h10.8v11.162h-10.8V59.536zM27.03 27.781h45.733c.835 0 1.557.49 1.898 1.196h-49.53a2.111 2.111 0 011.9-1.196zm-1.955 30.55h23.94v1.318H27.03a2.113 2.113 0 01-1.955-1.318zm15.93 4.745l1.484-1.597h6.527v1.597h-8.01zm20.158 11.136h-9.835a.483.483 0 01-.482-.482v-1.202h10.8v1.202a.482.482 0 01-.483.482zm14.626-4.17H63.475v-1.556h13.618v.25c0 .72-.585 1.306-1.304 1.306z"/></svg>