<?xml version="1.0" encoding="UTF-8" standalone="no"?>
<!DOCTYPE svg PUBLIC "-//W3C//DTD SVG 1.1//EN" "http://www.w3.org/Graphics/SVG/1.1/DTD/svg11.dtd">
<svg width="100%" height="100%" viewBox="0 0 102 102" version="1.1" xmlns="http://www.w3.org/2000/svg" xmlns:xlink="http://www.w3.org/1999/xlink" xml:space="preserve" xmlns:serif="http://www.serif.com/" style="fill-rule:evenodd;clip-rule:evenodd;stroke-linecap:round;stroke-linejoin:round;stroke-miterlimit:1.5;">
    <g transform="matrix(1,0,0,1,-1780.78,-1240.33)">
        <g transform="matrix(0.552821,0,0,0.552821,1052.06,566.152)">
            <circle cx="1410.44" cy="1311.77" r="90.445" style="fill:none;stroke:rgb(0,204,255);stroke-width:3.62px;"/>
        </g>
        <g transform="matrix(0.113932,0,0,0.113932,1802.61,1262.16)">
            <path d="M507.361,240.867C504.553,239.703 501.321,240.346 499.171,242.495L476.664,265.002L476.664,111.971C476.664,107.82 473.299,104.456 469.149,104.456L411.408,104.456L432.368,83.496C432.371,83.493 432.374,83.489 432.377,83.486L452.573,63.29C456.9,58.963 459.283,53.207 459.283,47.087C459.283,40.967 456.9,35.213 452.573,30.884L429.219,7.53C424.892,3.203 419.136,0.82 413.016,0.82C406.896,0.82 401.141,3.203 396.813,7.53L299.888,104.455L66.62,104.455L66.62,30.11C66.62,25.959 63.255,22.595 59.105,22.595C26.515,22.597 0,49.11 0,81.702L0,400.888C0,401.443 0.064,401.983 0.178,402.503C1.216,416.332 7.199,429.181 17.198,438.935C27.886,449.359 41.995,455.1 56.927,455.1L286.565,455.1L243.316,498.349C241.167,500.499 240.524,503.73 241.687,506.539C242.85,509.347 245.591,511.178 248.63,511.178L504.485,511.178C508.635,511.178 512,507.814 512,503.663L512,247.81C512,244.771 510.168,242.03 507.361,240.867ZM496.972,332.252L483.107,332.252C478.956,332.252 475.592,335.616 475.592,339.767C475.592,343.918 478.956,347.282 483.107,347.282L496.972,347.282L496.972,369.928L483.107,369.928C478.956,369.928 475.592,373.292 475.592,377.443C475.592,381.594 478.956,384.958 483.107,384.958L496.972,384.958L496.972,407.603L483.107,407.603C478.956,407.603 475.592,410.967 475.592,415.118C475.592,419.269 478.956,422.633 483.107,422.633L496.972,422.633L496.972,445.279L483.107,445.279C478.956,445.279 475.592,448.644 475.592,452.794C475.592,456.945 478.956,460.309 483.107,460.309L496.972,460.309L496.972,496.151L266.772,496.151L342.68,420.244C345.615,417.308 345.615,412.551 342.68,409.616C342.343,409.279 341.981,408.987 341.602,408.727C338.676,406.723 334.65,407.018 332.051,409.616L301.595,440.072L56.928,440.072C34.136,440.072 15.788,422.278 15.066,399.527C15.109,398.099 15.22,396.683 15.398,395.283C15.399,395.275 15.4,395.267 15.401,395.259C15.485,394.594 15.586,393.932 15.701,393.274C15.714,393.199 15.728,393.124 15.741,393.049C15.846,392.462 15.964,391.878 16.093,391.296C16.129,391.134 16.167,390.972 16.205,390.811C16.319,390.319 16.442,389.83 16.574,389.343C16.646,389.079 16.721,388.818 16.798,388.555C16.908,388.173 17.022,387.792 17.143,387.415C17.264,387.038 17.393,386.665 17.524,386.292C17.615,386.031 17.705,385.77 17.803,385.511C17.986,385.019 18.18,384.532 18.38,384.049C18.437,383.91 18.493,383.769 18.552,383.63C18.809,383.03 19.076,382.437 19.358,381.851C19.37,381.826 19.381,381.801 19.393,381.776C25.271,369.612 36.576,360.543 50.143,357.729C50.181,357.721 50.219,357.712 50.257,357.704C50.879,357.577 51.507,357.468 52.139,357.367C52.244,357.35 52.349,357.329 52.456,357.313C53.027,357.226 53.604,357.158 54.181,357.093C54.343,357.075 54.504,357.05 54.667,357.034C55.224,356.978 55.786,356.941 56.348,356.906C56.526,356.895 56.704,356.876 56.882,356.867C57.618,356.83 58.36,356.811 59.105,356.811C63.255,356.811 66.62,353.447 66.62,349.296L66.62,294.807C66.62,290.656 63.255,287.292 59.105,287.292C54.955,287.292 51.59,290.656 51.59,294.807L51.59,342.254C38.9,343.859 27.121,349.519 17.833,358.589C16.856,359.543 15.93,360.535 15.028,361.543L15.028,81.702C15.028,59.961 30.854,41.844 51.589,38.266L51.589,264.749C51.589,268.899 54.954,272.264 59.104,272.264C63.254,272.264 66.619,268.899 66.619,264.749L66.619,119.486L284.859,119.486L243.315,161.03C240.38,163.966 240.38,168.723 243.315,171.658C246.25,174.592 251.008,174.592 253.942,171.658L308.315,117.285C308.317,117.283 308.318,117.281 308.32,117.28L357.505,68.095L392.008,102.6L387.96,106.648C387.957,106.651 387.953,106.654 387.95,106.657L236.422,258.187L201.918,223.683L231.786,193.815C234.721,190.879 234.721,186.122 231.786,183.187C228.851,180.253 224.093,180.253 221.159,183.187L185.976,218.369C185.788,218.557 185.612,218.756 185.447,218.96C185.392,219.028 185.343,219.101 185.291,219.172C185.185,219.313 185.081,219.455 184.984,219.603C184.929,219.689 184.879,219.777 184.827,219.866C184.744,220.006 184.664,220.148 184.591,220.293C184.543,220.387 184.5,220.482 184.456,220.58C184.389,220.727 184.327,220.877 184.27,221.027C184.25,221.08 184.224,221.13 184.205,221.183L169.564,262.658L159.582,290.937C159.45,291.313 159.355,291.695 159.284,292.08L134.292,292.08C130.142,292.08 126.777,295.444 126.777,299.595C126.777,303.746 130.142,307.11 134.292,307.11L342.406,307.11C346.557,307.11 349.921,303.746 349.921,299.595C349.921,295.444 346.557,292.08 342.406,292.08L193.093,292.08L238.923,275.902C238.961,275.888 238.997,275.869 239.035,275.855C239.213,275.789 239.388,275.715 239.561,275.636C239.63,275.604 239.699,275.574 239.766,275.541C239.946,275.451 240.123,275.352 240.297,275.246C240.353,275.212 240.411,275.181 240.466,275.146C240.647,275.03 240.823,274.903 240.996,274.769C241.039,274.736 241.084,274.707 241.126,274.673C241.335,274.505 241.54,274.324 241.734,274.13L396.378,119.487L461.633,119.487L461.633,280.033L354.137,387.53C351.202,390.466 351.202,395.223 354.137,398.158C354.32,398.341 354.511,398.513 354.708,398.674C356.086,399.797 357.769,400.359 359.451,400.359C361.133,400.359 362.817,399.797 364.194,398.674C364.391,398.514 364.582,398.341 364.765,398.158L364.768,398.155L496.972,265.95L496.972,332.252ZM453.034,361.322C450.226,360.158 446.994,360.801 444.844,362.95L362.718,445.076C360.569,447.226 359.926,450.458 361.09,453.266C362.252,456.075 364.994,457.905 368.033,457.905L450.159,457.905C454.31,457.905 457.674,454.541 457.674,450.39L457.674,368.264C457.673,365.225 455.842,362.485 453.034,361.322ZM386.173,442.876L442.642,386.407L442.642,442.876L386.173,442.876ZM222.677,265.696L201.151,273.295L186.809,258.953L194.408,237.427L222.677,265.696ZM381.922,43.679L416.427,78.183L402.638,91.972L368.135,57.468L381.922,43.679ZM407.443,18.159C410.515,15.085 415.52,15.085 418.592,18.159L441.947,41.514C445.021,44.587 445.021,49.59 441.947,52.664L427.056,67.556L392.55,33.051L407.443,18.159Z" style="fill:white;fill-rule:nonzero;"/>
        </g>
    </g>
</svg>
