<?xml version="1.0" encoding="UTF-8" standalone="no"?>
<!DOCTYPE svg PUBLIC "-//W3C//DTD SVG 1.1//EN" "http://www.w3.org/Graphics/SVG/1.1/DTD/svg11.dtd">
<svg width="100%" height="100%" viewBox="0 0 102 102" version="1.1" xmlns="http://www.w3.org/2000/svg" xmlns:xlink="http://www.w3.org/1999/xlink" xml:space="preserve" xmlns:serif="http://www.serif.com/" style="fill-rule:evenodd;clip-rule:evenodd;stroke-linecap:round;stroke-linejoin:round;stroke-miterlimit:1.5;">
    <g transform="matrix(1,0,0,1,-1780.78,-1439)">
        <g transform="matrix(0.552821,0,0,0.552821,1052.06,764.825)">
            <circle cx="1410.44" cy="1311.77" r="90.445" style="fill:none;stroke:rgb(0,204,255);stroke-width:3.62px;"/>
        </g>
        <g transform="matrix(0.136986,0,0,0.136986,1796.78,1455)">
            <path d="M492.168,309.579L474.542,299.402C477.502,284.679 479,269.936 479,255.5C479,240.854 477.526,226.097 474.616,211.554L492.168,201.42C497.604,198.282 501.493,193.214 503.117,187.151C504.741,181.088 503.908,174.755 500.769,169.319L452.769,86.18C449.63,80.744 444.563,76.855 438.5,75.231C432.436,73.607 426.104,74.44 420.667,77.579L403.101,87.721C380.912,68.2 354.798,53.092 327,43.692L327,23.5C327,10.542 316.458,0 303.5,0L207.5,0C194.542,0 184,10.542 184,23.5L184,43.693C156.35,53.055 130.272,68.183 108.001,87.781L90.332,77.579C84.895,74.44 78.562,73.606 72.499,75.231C66.436,76.856 61.369,80.744 58.23,86.18L10.23,169.319C7.091,174.755 6.258,181.088 7.882,187.151C9.506,193.214 13.395,198.282 18.831,201.42L36.457,211.597C33.499,226.32 32,241.063 32,255.5C32,270.144 33.474,284.901 36.384,299.445L18.832,309.579C7.61,316.058 3.752,330.458 10.23,341.681L58.23,424.82C64.709,436.041 79.109,439.9 90.332,433.421L107.897,423.279C130.087,442.8 156.2,457.908 184,467.309L184,487.5C184,500.458 194.542,511 207.5,511L303.5,511C316.458,511 327,500.458 327,487.5L327,467.307C354.651,457.945 380.729,442.817 403,423.22L420.668,433.421C431.889,439.9 446.291,436.041 452.77,424.82L500.77,341.681C507.248,330.458 503.39,316.058 492.168,309.579ZM487.779,334.181L439.779,417.319C437.436,421.379 432.227,422.774 428.168,420.43L405.776,407.502C402.931,405.859 399.346,406.26 396.934,408.491C374.041,429.664 346.497,445.639 317.281,454.69C314.141,455.663 312,458.567 312,461.854L312,487.5C312,492.187 308.187,496 303.5,496L207.5,496C202.813,496 199,492.187 199,487.5L199,461.855C199,458.568 196.859,455.664 193.72,454.691C164.324,445.584 136.746,429.629 113.965,408.552C112.544,407.237 110.715,406.557 108.87,406.557C107.584,406.557 106.291,406.887 105.122,407.562L82.832,420.43C78.772,422.773 73.564,421.378 71.221,417.319L23.221,334.181C20.878,330.122 22.274,324.913 26.332,322.569L48.604,309.71C51.448,308.068 52.893,304.768 52.17,301.564C48.739,286.357 47,270.858 47,255.5C47,240.4 48.765,224.916 52.247,209.478C52.969,206.275 51.524,202.974 48.681,201.333L26.332,188.43C24.366,187.295 22.96,185.462 22.372,183.269C21.785,181.076 22.086,178.785 23.221,176.819L71.221,93.68C72.356,91.714 74.189,90.307 76.383,89.72C78.575,89.132 80.867,89.434 82.833,90.569L105.225,103.497C108.071,105.141 111.655,104.739 114.067,102.508C136.961,81.335 164.504,65.36 193.72,56.309C196.86,55.336 199.001,52.432 199.001,49.145L199.001,23.5C199.001,18.813 202.814,15 207.501,15L303.501,15C308.188,15 312.001,18.813 312.001,23.5L312.001,49.145C312.001,52.432 314.142,55.336 317.281,56.309C346.676,65.415 374.254,81.37 397.036,102.448C399.448,104.68 403.033,105.081 405.879,103.438L428.169,90.569C430.136,89.434 432.427,89.132 434.619,89.72C436.812,90.308 438.645,91.714 439.781,93.68L487.781,176.819C488.916,178.785 489.218,181.076 488.63,183.269C488.042,185.462 486.636,187.295 484.67,188.43L462.398,201.289C459.554,202.931 458.109,206.232 458.832,209.435C462.263,224.641 464.002,240.139 464.002,255.5C464.002,270.6 462.237,286.084 458.755,301.521C458.033,304.724 459.478,308.024 462.321,309.666L484.67,322.569C488.727,324.913 490.123,330.122 487.779,334.181ZM240.14,431.341C199.951,427.878 161.803,410.462 132.724,382.3C129.748,379.418 125,379.495 122.119,382.47C119.238,385.446 119.313,390.194 122.289,393.075C153.839,423.63 195.236,442.527 238.852,446.285C239.071,446.304 239.288,446.313 239.504,446.313C243.355,446.313 246.631,443.364 246.968,439.457C247.323,435.331 244.266,431.697 240.14,431.341ZM255.5,104C171.962,104 104,171.963 104,255.5C104,339.037 171.962,407 255.5,407C339.038,407 407,339.037 407,255.5C407,171.963 339.038,104 255.5,104ZM255.5,392C180.234,392 119,330.766 119,255.5C119,180.234 180.234,119 255.5,119C330.766,119 392,180.234 392,255.5C392,330.766 330.766,392 255.5,392ZM100.45,339.904C98.466,336.268 93.909,334.928 90.274,336.912C86.638,338.896 85.298,343.452 87.282,347.088C90.394,352.792 93.839,358.403 97.521,363.765C98.975,365.882 101.322,367.02 103.71,367.02C105.173,367.02 106.651,366.593 107.949,365.702C111.364,363.357 112.231,358.688 109.886,355.274C106.493,350.332 103.318,345.161 100.45,339.904ZM214.522,220.867C213.424,217.94 210.626,216 207.5,216L199.5,216C196.374,216 193.575,217.939 192.478,220.867L168.478,284.867C167.023,288.745 168.989,293.068 172.867,294.523C176.745,295.978 181.068,294.012 182.523,290.134L186.697,279L220.302,279L224.477,290.133C225.606,293.144 228.464,295.002 231.5,295.002C232.375,295.002 233.265,294.848 234.132,294.523C238.01,293.069 239.976,288.745 238.521,284.867L214.522,220.867ZM327.5,216C323.358,216 320,219.358 320,223.5L320,287.5C320,291.642 323.358,295 327.5,295C331.642,295 335,291.642 335,287.5L335,223.5C335,219.358 331.642,216 327.5,216ZM283.5,216L255.5,216C251.358,216 248,219.358 248,223.5L248,287.5C248,291.642 251.358,295 255.5,295C259.642,295 263,291.642 263,287.5L263,271L283.5,271C298.664,271 311,258.664 311,243.5C311,228.336 298.664,216 283.5,216ZM192.322,264L203.5,234.193L214.678,264L192.322,264ZM283.5,256L263,256L263,231L283.5,231C290.393,231 296,236.607 296,243.5C296,250.393 290.393,256 283.5,256ZM363.425,97.287C360.005,94.95 355.338,95.828 353.001,99.247C350.664,102.667 351.542,107.334 354.961,109.671C389.805,133.484 415.01,168.919 425.933,209.447C426.835,212.793 429.863,214.997 433.17,214.997C433.816,214.997 434.473,214.913 435.126,214.737C439.126,213.659 441.494,209.543 440.416,205.544C428.564,161.564 401.221,123.118 363.425,97.287ZM309.152,87.3C314.357,88.959 319.546,90.886 324.573,93.026C325.531,93.434 326.527,93.627 327.507,93.627C330.423,93.627 333.197,91.915 334.411,89.063C336.033,85.252 334.259,80.847 330.448,79.225C324.99,76.902 319.358,74.81 313.706,73.009C309.761,71.751 305.541,73.931 304.283,77.877C303.026,81.823 305.206,86.042 309.152,87.3Z" style="fill:white;fill-rule:nonzero;"/>
        </g>
    </g>
</svg>
