<svg xmlns="http://www.w3.org/2000/svg" fill-rule="evenodd" stroke-linecap="round" stroke-linejoin="round" stroke-miterlimit="1.5" clip-rule="evenodd" viewBox="0 0 102 102"><circle cx="1410.44" cy="1311.77" r="90.445" fill="none" stroke="#0cf" stroke-width="3.62" transform="translate(-728.72 -674.175) scale(.55282)"/><path fill="#fff" fill-rule="nonzero" d="M83.42 58.408l-2.414-1.394c.405-2.017.61-4.037.61-6.014 0-2.006-.202-4.028-.6-6.02l2.404-1.388a3.198 3.198 0 001.5-1.955 3.198 3.198 0 00-.322-2.443l-6.575-11.389a3.198 3.198 0 00-1.955-1.5 3.198 3.198 0 00-2.443.322l-2.406 1.39a30.806 30.806 0 00-10.425-6.032V19.22A3.223 3.223 0 0057.575 16h-13.15a3.223 3.223 0 00-3.22 3.22v2.765a30.807 30.807 0 00-10.41 6.04l-2.42-1.398a3.198 3.198 0 00-2.444-.321 3.198 3.198 0 00-1.954 1.5L17.4 39.193a3.198 3.198 0 00-.321 2.443c.222.83.755 1.525 1.5 1.955l2.414 1.394a30.587 30.587 0 00-.61 6.014c0 2.006.201 4.027.6 6.02l-2.404 1.388a3.223 3.223 0 00-1.179 4.398l6.576 11.388a3.223 3.223 0 004.397 1.179l2.406-1.39a30.808 30.808 0 0010.425 6.032v2.766A3.223 3.223 0 0044.425 86h13.15a3.223 3.223 0 003.22-3.22v-2.765a30.808 30.808 0 0010.41-6.04l2.42 1.398a3.223 3.223 0 004.398-1.179l6.575-11.388a3.223 3.223 0 00-1.178-4.398zm-.601 3.37l-6.575 11.389a1.165 1.165 0 01-1.591.426l-3.067-1.77c-.39-.226-.881-.171-1.212.135-3.136 2.9-6.909 5.088-10.91 6.328-.431.133-.724.531-.724.982v3.513c0 .642-.523 1.164-1.165 1.164h-13.15a1.166 1.166 0 01-1.165-1.164v-3.513c0-.45-.293-.848-.723-.982a28.702 28.702 0 01-10.925-6.32 1.027 1.027 0 00-1.212-.136l-3.053 1.763c-.556.321-1.27.13-1.59-.426L19.18 61.778a1.166 1.166 0 01.426-1.59l3.051-1.762c.39-.225.588-.677.489-1.116a28.721 28.721 0 01-.709-6.31c0-2.069.242-4.19.72-6.304a1.027 1.027 0 00-.49-1.116l-3.06-1.768a1.157 1.157 0 01-.543-.707c-.08-.3-.04-.614.116-.883l6.575-11.39c.156-.268.407-.461.707-.542.3-.08.615-.039.884.117l3.067 1.77c.39.226.881.17 1.212-.135 3.136-2.9 6.909-5.089 10.91-6.328.431-.134.724-.532.724-.982V19.22c0-.642.523-1.164 1.165-1.164h13.15c.642 0 1.165.522 1.165 1.164v3.513c0 .45.293.848.723.982a28.7 28.7 0 0110.925 6.32c.33.306.822.36 1.212.136l3.053-1.763c.27-.156.583-.197.884-.117.3.08.551.274.707.543l6.575 11.389c.156.269.197.583.116.883-.08.3-.273.552-.542.707l-3.05 1.762c-.39.225-.588.677-.49 1.116.47 2.083.709 4.206.709 6.31 0 2.068-.242 4.19-.719 6.304-.099.439.1.891.489 1.116l3.061 1.767c.556.322.747 1.035.426 1.591zm-33.923 13.31A24.205 24.205 0 0134.18 68.37a1.027 1.027 0 10-1.43 1.476 26.265 26.265 0 0015.968 7.289c.03.002.06.004.09.004a1.028 1.028 0 00.087-2.051zM51 30.247c-11.444 0-20.753 9.31-20.753 20.753S39.557 71.753 51 71.753 71.753 62.443 71.753 51 62.443 30.247 51 30.247zm0 39.452c-10.31 0-18.699-8.389-18.699-18.7 0-10.31 8.389-18.698 18.699-18.698 10.31 0 18.699 8.389 18.699 18.699 0 10.31-8.389 18.699-18.7 18.699zm-21.24-7.137a1.027 1.027 0 00-1.804.984c.427.782.899 1.55 1.403 2.285a1.026 1.026 0 101.694-1.163c-.465-.677-.9-1.386-1.293-2.106zm15.627-16.306a1.027 1.027 0 00-.962-.667h-1.096c-.429 0-.812.266-.962.667l-3.288 8.767a1.027 1.027 0 001.924.721l.572-1.525h4.603l.572 1.525a1.028 1.028 0 101.924-.721l-3.287-8.767zm15.476-.667c-.567 0-1.027.46-1.027 1.027v8.767a1.027 1.027 0 002.054 0v-8.767c0-.567-.46-1.027-1.027-1.027zm-6.027 0H51c-.567 0-1.027.46-1.027 1.027v8.767a1.027 1.027 0 002.054 0v-2.26h2.809a3.771 3.771 0 003.767-3.767 3.771 3.771 0 00-3.767-3.767zm-12.49 6.575l1.53-4.083 1.532 4.083h-3.063zm12.49-1.096h-2.809v-3.424h2.809c.944 0 1.712.768 1.712 1.712s-.768 1.712-1.712 1.712zm10.948-21.741a1.028 1.028 0 00-1.16 1.696 24.209 24.209 0 019.723 13.668 1.028 1.028 0 001.984-.534 26.264 26.264 0 00-10.547-14.83zm-7.435-1.368c.714.227 1.424.491 2.113.784a1.024 1.024 0 001.348-.543 1.027 1.027 0 00-.543-1.347A26.165 26.165 0 0058.973 26a1.027 1.027 0 00-.624 1.958z"/></svg>