<?xml version="1.0" encoding="UTF-8" standalone="no"?>
<!DOCTYPE svg PUBLIC "-//W3C//DTD SVG 1.1//EN" "http://www.w3.org/Graphics/SVG/1.1/DTD/svg11.dtd">
<svg width="100%" height="100%" viewBox="0 0 102 102" version="1.1" xmlns="http://www.w3.org/2000/svg" xmlns:xlink="http://www.w3.org/1999/xlink" xml:space="preserve" xmlns:serif="http://www.serif.com/" style="fill-rule:evenodd;clip-rule:evenodd;stroke-linecap:round;stroke-linejoin:round;stroke-miterlimit:1.5;">
    <g transform="matrix(1,0,0,1,-1379,-1439)">
        <g transform="matrix(0.552821,0,0,0.552821,650.276,764.825)">
            <circle cx="1410.44" cy="1311.77" r="90.445" style="fill:none;stroke:rgb(0,204,255);stroke-width:3.62px;"/>
        </g>
        <g transform="matrix(0.112567,0,0,0.112567,1406.25,1462.08)">
            <path d="M0,456C0,478.056 17.944,496 40,496L248,496C270.056,496 288,478.056 288,456L288,416L0,416L0,456ZM16,432L272,432L272,456C272,469.232 261.232,480 248,480L40,480C26.768,480 16,469.232 16,456L16,432ZM184,448L104,448L104,464L184,464L184,448ZM496,326.56L496,265.44L456.544,257.56C455.624,255.248 454.608,252.96 453.512,250.704L439.12,257.704C440.624,260.808 441.952,263.976 443.04,267.144L444.544,271.472L480,278.56L480,313.432L444.544,320.528L443.04,324.856C441.944,328.024 440.624,331.2 439.12,334.296L437.112,338.416L457.184,368.52L432.52,393.184L402.408,373.12L398.288,375.128C395.192,376.632 392.016,377.96 388.848,379.048L384.52,380.552L377.44,416L342.56,416L335.464,380.544L331.136,379.04C327.968,377.944 324.792,376.624 321.696,375.12L317.576,373.112L287.464,393.176L258.16,363.88L246.848,375.192L285.432,413.768L318.912,391.448C319.784,391.824 320.664,392.192 321.544,392.544L329.44,432L390.568,432L398.448,392.544C399.328,392.192 400.208,391.824 401.08,391.448L434.56,413.768L477.784,370.56L455.456,337.072C455.832,336.2 456.2,335.32 456.552,334.44L496,326.56ZM16,64L272,64L272,80L288,80L288,40C288,17.944 270.056,0 248,0L40,0C17.944,0 0,17.944 0,40L0,400L16,400L16,64ZM144,368L128,368L128,384L144,384L144,368ZM144,336L128,336L128,352L144,352L144,336ZM360,248C333.528,248 312,269.528 312,296C312,322.472 333.528,344 360,344C386.472,344 408,322.472 408,296C408,269.528 386.472,248 360,248ZM242.216,221.44L264.544,254.92C264.168,255.792 263.8,256.672 263.448,257.552L224,265.44L224,326.568L263.456,334.448C264.376,336.76 265.392,339.048 266.488,341.296L280.88,334.296C279.376,331.2 278.048,328.024 276.96,324.856L275.456,320.528L240,313.44L240,278.56L275.456,271.464L276.96,267.136C278.056,263.968 279.376,260.8 280.88,257.696L282.888,253.568L262.816,223.472L287.48,198.808L317.584,218.872L321.712,216.872C324.8,215.368 327.984,214.04 331.168,212.936L335.48,211.432L342.552,176L377.44,176L384.528,211.44L388.84,212.944C392.016,214.048 395.208,215.376 398.296,216.88L402.424,218.88L432.528,198.816L461.832,228.12L473.144,216.808L434.56,178.232L401.072,200.552C400.208,200.176 399.328,199.816 398.448,199.464L390.552,160L329.44,160L321.552,199.456C320.672,199.808 319.792,200.168 318.928,200.544L285.44,178.224L242.216,221.44ZM360,328C342.352,328 328,313.648 328,296C328,278.352 342.352,264 360,264C377.648,264 392,278.352 392,296C392,313.648 377.648,328 360,328ZM144,304L128,304L128,320L144,320L144,304ZM164.4,258.8C165.872,258.24 167.336,257.624 168.792,256.96L193.592,273.496L225.496,241.592L208.96,216.792C209.624,215.328 210.24,213.864 210.8,212.4L240,206.56L240,161.44L210.8,155.6C209.672,152.68 208.344,149.76 206.832,146.872L192.672,154.32C194.52,157.848 196.024,161.424 197.112,164.928L198.528,169.464L224,174.56L224,193.44L198.52,198.536L197.104,203.072C196.016,206.576 194.52,210.144 192.664,213.68L190.456,217.888L204.896,239.552L191.552,252.904L169.888,238.456L165.688,240.664C162.176,242.512 158.6,244.008 155.072,245.112L150.544,246.528L145.448,272L126.56,272L121.464,246.528L116.936,245.112C113.408,244.008 109.832,242.512 106.32,240.664L102.12,238.456L80.456,252.904L62.472,234.912L51.16,246.224L78.424,273.488L103.224,256.952C104.68,257.616 106.144,258.232 107.616,258.792L113.456,287.992L158.568,287.992L164.4,258.8ZM136,144C113.944,144 96,161.944 96,184C96,206.056 113.944,224 136,224C158.056,224 176,206.056 176,184C176,161.944 158.056,144 136,144ZM32,161.44L32,206.56L61.2,212.4C62.328,215.32 63.656,218.24 65.168,221.128L79.328,213.68C77.48,210.152 75.976,206.576 74.888,203.072L73.472,198.536L48,193.44L48,174.56L73.48,169.464L74.896,164.928C75.984,161.424 77.48,157.856 79.336,154.32L81.544,150.112L67.104,128.448L80.456,115.096L102.128,129.544L106.328,127.328C109.832,125.488 113.4,123.992 116.928,122.888L121.456,121.472L126.552,96L145.44,96L150.536,121.472L155.064,122.888C158.592,123.992 162.168,125.488 165.664,127.328L169.864,129.544L191.536,115.096L209.528,133.088L220.84,121.776L193.584,94.512L168.776,111.04C167.312,110.376 165.856,109.768 164.384,109.2L158.552,80L113.44,80L107.6,109.2C106.128,109.768 104.672,110.376 103.208,111.04L78.4,94.512L46.504,126.408L63.04,151.208C62.376,152.672 61.76,154.136 61.2,155.6L32,161.44ZM136,208C122.768,208 112,197.232 112,184C112,170.768 122.768,160 136,160C149.232,160 160,170.768 160,184C160,197.232 149.232,208 136,208ZM368,128L352,128L352,144L368,144L368,128ZM368,96L352,96L352,112L368,112L368,96ZM368,64L352,64L352,80L368,80L368,64ZM16,40C16,26.768 26.768,16 40,16L248,16C261.232,16 272,26.768 272,40L272,48L16,48L16,40Z" style="fill:white;fill-rule:nonzero;"/>
        </g>
    </g>
</svg>
