<svg xmlns="http://www.w3.org/2000/svg" fill-rule="evenodd" stroke-linecap="round" stroke-linejoin="round" stroke-miterlimit="1.5" clip-rule="evenodd" viewBox="0 0 102 102"><circle cx="1410.44" cy="1311.77" r="90.445" fill="none" stroke="#0cf" stroke-width="3.62" transform="translate(-728.721 -674.175) scale(.55282)"/><path fill="#fff" fill-rule="nonzero" d="M41.058 64.395H24.28c-.603 0-1.092.489-1.092 1.092V76.73c0 .603.489 1.091 1.092 1.091h16.777c.603 0 1.091-.488 1.091-1.091V65.487c0-.603-.488-1.092-1.091-1.092zm36.802 0H44.863c-.603 0-1.092.489-1.092 1.092V76.73c0 .603.489 1.091 1.092 1.091H77.86c.602 0 1.091-.488 1.091-1.091V65.487c0-.603-.489-1.092-1.091-1.092zM39.966 75.64H25.372v-9.06h14.594v9.06zm36.802 0H45.954v-9.06h30.814v9.06zm-25.841-4.743a1.105 1.105 0 00-.464-.694 1.085 1.085 0 00-.393-.164 1.123 1.123 0 00-.427 0 1.16 1.16 0 00-.392.164 1.045 1.045 0 00-.302.301 1.076 1.076 0 00-.183.606 1.075 1.075 0 00.183.606 1.1 1.1 0 001.121.465 1.106 1.106 0 00.857-.858 1.077 1.077 0 000-.426zm21.4-.879H53.995a1.092 1.092 0 000 2.183h18.332a1.092 1.092 0 000-2.183zm5.533-30.88H61.082c-.602 0-1.091.488-1.091 1.091v21.527c0 .603.489 1.091 1.091 1.091H77.86c.602 0 1.091-.488 1.091-1.091V40.228c0-.603-.489-1.091-1.091-1.091zm-20.434 0H24.281c-.603 0-1.092.488-1.092 1.091v21.527c0 .603.489 1.091 1.092 1.091h33.145c.603 0 1.092-.488 1.092-1.091V40.228c0-.603-.489-1.091-1.092-1.091zm19.342 21.526H62.174V41.32h14.594v19.343zm-40.411 0H27.09l6.24-7.225 4.52 5.233-1.494 1.992zm2.729 0l2.035-2.714h5.293a1.092 1.092 0 000-2.183H42.76l.765-1.021h6.855l4.439 5.918H39.086zm17.249-1.616l-8.51-11.346a1.092 1.092 0 00-1.747 0l-6.887 9.183-5.034-5.83a1.092 1.092 0 00-1.652 0l-7.133 8.259V41.32h30.963v17.727zm9.451-1.908a1.097 1.097 0 00-.299-.559 1.099 1.099 0 00-1.378-.135 1.096 1.096 0 00-.3.301 1.16 1.16 0 00-.164.393 1.083 1.083 0 00.653 1.222 1.102 1.102 0 00.418.084 1.097 1.097 0 001.07-.88 1.084 1.084 0 000-.426zm8.44-.878h-5.372a1.092 1.092 0 000 2.183h5.372a1.092 1.092 0 000-2.183zm0-4.381h-9.51a1.092 1.092 0 000 2.183h9.51a1.092 1.092 0 000-2.183zm-29.064.682l1.79-2.387 1.79 2.387h-3.58zm-7.076-9.989a3.864 3.864 0 00-3.86 3.86 3.864 3.864 0 003.86 3.859 3.864 3.864 0 003.86-3.86 3.864 3.864 0 00-3.86-3.859zm36.14 4.926h-9.51a1.092 1.092 0 000 2.183h9.51a1.092 1.092 0 000-2.183zm-36.14.61a1.678 1.678 0 01-1.676-1.676c0-.925.752-1.676 1.676-1.676.924 0 1.676.751 1.676 1.676 0 .924-.752 1.675-1.676 1.675zm36.14-4.991h-9.51a1.092 1.092 0 000 2.183h9.51a1.092 1.092 0 000-2.183zm3.634-18.95H24.152c-.603 0-1.092.49-1.092 1.092V36.49c0 .603.489 1.091 1.092 1.091H77.86c.602 0 1.091-.488 1.091-1.091V25.26c0-.602-.489-1.091-1.091-1.091zm-1.092 11.23H25.243v-9.046h51.525v9.045zm-2.466-2.48l-.892-.892a3.47 3.47 0 00.373-1.57c0-.932-.363-1.808-1.021-2.467a3.491 3.491 0 00-4.932 0 3.465 3.465 0 00-1.022 2.466c0 .932.363 1.808 1.022 2.466a3.465 3.465 0 002.466 1.022c.555 0 1.09-.13 1.57-.373l.892.891a1.089 1.089 0 001.544 0 1.092 1.092 0 000-1.543zM56.969 31.76H34.28a1.092 1.092 0 000 2.183H56.97a1.092 1.092 0 000-2.183zm5.208.878a1.097 1.097 0 00-.857-.857 1.08 1.08 0 00-.818.163 1.105 1.105 0 00-.303.3 1.118 1.118 0 00-.183.608 1.083 1.083 0 00.486.907 1.108 1.108 0 00.605.183 1.082 1.082 0 00.772-.319 1.101 1.101 0 00.298-.985zm9.041-1.26a1.295 1.295 0 01-.922.382c-.349 0-.676-.136-.922-.382a1.296 1.296 0 01-.382-.923 1.3 1.3 0 011.304-1.304 1.3 1.3 0 011.304 1.304c0 .349-.136.676-.382.923z"/></svg>