<svg xmlns="http://www.w3.org/2000/svg" fill-rule="evenodd" stroke-linecap="round" stroke-linejoin="round" stroke-miterlimit="1.5" clip-rule="evenodd" viewBox="0 0 102 102"><circle cx="1410.44" cy="1311.77" r="90.445" fill="none" stroke="#0cf" stroke-width="3.62" transform="translate(-728.724 -674.178) scale(.55282)"/><path fill="#fff" fill-rule="nonzero" d="M73.767 40.318a.903.903 0 00.903-.904v-6.306a2.713 2.713 0 00-2.71-2.71h-.903v-2.41a2.713 2.713 0 00-2.71-2.71h-.903V22.87a2.713 2.713 0 00-2.71-2.71H30.046a2.713 2.713 0 00-2.71 2.71v4.982a.903.903 0 101.807 0V22.87c0-.498.405-.903.903-.903h34.688c.498 0 .903.405.903.903v46.01a.904.904 0 01-.903.903H30.046a.904.904 0 01-.903-.904V31.706a.903.903 0 10-1.807 0V68.88a2.713 2.713 0 002.71 2.71h.904v2.409a2.713 2.713 0 002.71 2.71h.903v2.409a2.713 2.713 0 002.71 2.71H71.96a2.713 2.713 0 002.71-2.71v-35.87a.903.903 0 10-1.806 0v35.87a.904.904 0 01-.904.903H37.273a.904.904 0 01-.903-.903v-2.409h22.326a.903.903 0 100-1.807H33.66a.904.904 0 01-.904-.903v-2.409h31.978a2.713 2.713 0 002.71-2.71V27.085h.903c.498 0 .904.406.904.904v46.009a.904.904 0 01-.904.903h-5.82a.903.903 0 100 1.807h5.82a2.713 2.713 0 002.71-2.71V32.204h.903c.499 0 .904.405.904.904v6.306c0 .5.404.904.903.904zM33.42 64.724c0 .764.621 1.385 1.385 1.385h6.263c.764 0 1.385-.621 1.385-1.385V58.46c0-.764-.621-1.385-1.385-1.385h-6.263c-.764 0-1.385.621-1.385 1.385v6.263zm1.806-5.842h5.42v5.42h-5.42v-5.42zm25.233 3.493H46.005a.903.903 0 100 1.807h14.453a.903.903 0 100-1.807zm0-3.854H46.005a.903.903 0 100 1.807h14.453a.903.903 0 100-1.807zm-27.04-5.48c0 .764.622 1.385 1.386 1.385h6.263c.764 0 1.385-.621 1.385-1.385v-6.263c0-.764-.621-1.385-1.385-1.385h-6.263c-.764 0-1.385.621-1.385 1.385v6.263zm1.807-5.842h5.42v5.42h-5.42V47.2zm25.233 3.493H46.005a.903.903 0 100 1.807h14.453a.903.903 0 100-1.807zm0-3.854H46.005a.903.903 0 100 1.807h14.453a.903.903 0 100-1.807zm-27.04-11.743v6.263c0 .764.622 1.385 1.386 1.385h6.263c.764 0 1.385-.621 1.385-1.385V36.7l1.851-1.58a.903.903 0 10-1.173-1.375l-.834.712a1.386 1.386 0 00-1.23-.747h-6.262c-.764 0-1.385.621-1.385 1.385zm1.807.421h5.42v.35l-1.792 1.53-.856-.926a.904.904 0 00-1.328 1.225l1.446 1.566c.329.356.881.39 1.25.074l1.28-1.093v2.694h-5.42v-5.42zm25.233 3.493H46.005a.903.903 0 100 1.807h14.453a.903.903 0 100-1.807zm0-3.854H46.005a.903.903 0 100 1.807h14.453a.903.903 0 100-1.807zm-4.577-10.72h-16.62a3.014 3.014 0 00-3.012 3.012c0 1.66 1.35 3.01 3.011 3.01h16.621c1.66 0 3.011-1.35 3.011-3.01 0-1.66-1.35-3.011-3.01-3.011zm0 4.216h-16.62c-.665 0-1.205-.54-1.205-1.204 0-.664.54-1.205 1.204-1.205h16.621a1.206 1.206 0 010 2.409z"/></svg>