<?xml version="1.0" encoding="UTF-8" standalone="no"?>
<!DOCTYPE svg PUBLIC "-//W3C//DTD SVG 1.1//EN" "http://www.w3.org/Graphics/SVG/1.1/DTD/svg11.dtd">
<svg width="100%" height="100%" viewBox="0 0 102 102" version="1.1" xmlns="http://www.w3.org/2000/svg" xmlns:xlink="http://www.w3.org/1999/xlink" xml:space="preserve" xmlns:serif="http://www.serif.com/" style="fill-rule:evenodd;clip-rule:evenodd;stroke-linecap:round;stroke-linejoin:round;stroke-miterlimit:1.5;">
    <g transform="matrix(1,0,0,1,-1379,-1240.33)">
        <g transform="matrix(0.552821,0,0,0.552821,650.276,566.152)">
            <circle cx="1410.44" cy="1311.77" r="90.445" style="fill:none;stroke:rgb(0,204,255);stroke-width:3.62px;"/>
        </g>
        <g transform="matrix(0.120443,0,0,0.120443,1399.17,1260.49)">
            <path d="M445,167.364C449.143,167.364 452.5,164.007 452.5,159.864L452.5,107.5C452.5,95.094 442.406,85 430,85L422.5,85L422.5,65C422.5,52.594 412.406,42.5 400,42.5L392.5,42.5L392.5,22.5C392.5,10.094 382.406,0 370,0L82,0C69.593,0 59.5,10.094 59.5,22.5L59.5,63.865C59.5,68.008 62.858,71.365 67,71.365C71.142,71.365 74.5,68.008 74.5,63.865L74.5,22.5C74.5,18.364 77.864,15 82,15L370,15C374.136,15 377.5,18.364 377.5,22.5L377.5,404.5C377.5,408.636 374.136,412 370,412L82,412C77.864,412 74.5,408.636 74.5,404.5L74.5,95.865C74.5,91.722 71.142,88.365 67,88.365C62.858,88.365 59.5,91.722 59.5,95.865L59.5,404.5C59.5,416.906 69.593,427 82,427L89.5,427L89.5,447C89.5,459.406 99.593,469.5 112,469.5L119.5,469.5L119.5,489.5C119.5,501.906 129.593,512 142,512L430,512C442.406,512 452.5,501.906 452.5,489.5L452.5,191.679C452.5,187.536 449.143,184.179 445,184.179C440.857,184.179 437.5,187.536 437.5,191.679L437.5,489.5C437.5,493.636 434.136,497 430,497L142,497C137.864,497 134.5,493.636 134.5,489.5L134.5,469.5L319.867,469.5C324.01,469.5 327.367,466.143 327.367,462C327.367,457.857 324.01,454.5 319.867,454.5L112,454.5C107.865,454.5 104.5,451.136 104.5,447L104.5,427L370,427C382.406,427 392.5,416.906 392.5,404.5L392.5,57.5L400,57.5C404.136,57.5 407.5,60.864 407.5,65L407.5,447C407.5,451.136 404.136,454.5 400,454.5L351.681,454.5C347.538,454.5 344.181,457.857 344.181,462C344.181,466.143 347.538,469.5 351.681,469.5L400,469.5C412.406,469.5 422.5,459.406 422.5,447L422.5,100L430,100C434.136,100 437.5,103.364 437.5,107.5L437.5,159.864C437.5,164.007 440.857,167.364 445,167.364ZM110,370C110,376.341 115.159,381.5 121.5,381.5L173.5,381.5C179.841,381.5 185,376.341 185,370L185,318C185,311.659 179.841,306.5 173.5,306.5L121.5,306.5C115.159,306.5 110,311.659 110,318L110,370ZM125,321.5L170,321.5L170,366.5L125,366.5L125,321.5ZM334.5,350.5L214.5,350.5C210.358,350.5 207,353.857 207,358C207,362.143 210.358,365.5 214.5,365.5L334.5,365.5C338.643,365.5 342,362.143 342,358C342,353.857 338.643,350.5 334.5,350.5ZM334.5,318.5L214.5,318.5C210.358,318.5 207,321.857 207,326C207,330.143 210.358,333.5 214.5,333.5L334.5,333.5C338.643,333.5 342,330.143 342,326C342,321.857 338.643,318.5 334.5,318.5ZM110,273C110,279.341 115.159,284.5 121.5,284.5L173.5,284.5C179.841,284.5 185,279.341 185,273L185,221C185,214.659 179.841,209.5 173.5,209.5L121.5,209.5C115.159,209.5 110,214.659 110,221L110,273ZM125,224.5L170,224.5L170,269.5L125,269.5L125,224.5ZM334.5,253.5L214.5,253.5C210.358,253.5 207,256.857 207,261C207,265.143 210.358,268.5 214.5,268.5L334.5,268.5C338.643,268.5 342,265.143 342,261C342,256.857 338.643,253.5 334.5,253.5ZM334.5,221.5L214.5,221.5C210.358,221.5 207,224.857 207,229C207,233.143 210.358,236.5 214.5,236.5L334.5,236.5C338.643,236.5 342,233.143 342,229C342,224.857 338.643,221.5 334.5,221.5ZM110,124L110,176C110,182.341 115.159,187.5 121.5,187.5L173.5,187.5C179.841,187.5 185,182.341 185,176L185,137.324L200.37,124.204C203.52,121.515 203.894,116.781 201.204,113.631C198.516,110.48 193.781,110.107 190.63,112.796L183.706,118.706C181.787,115.022 177.933,112.5 173.499,112.5L121.499,112.5C115.159,112.5 110,117.659 110,124ZM125,127.5L170,127.5L170,130.407L155.118,143.111L148.012,135.413C145.203,132.371 140.458,132.181 137.414,134.989C134.37,137.799 134.181,142.543 136.99,145.587L148.99,158.587C151.723,161.547 156.307,161.82 159.371,159.204L170.001,150.129L170.001,172.5L125.001,172.5L125.001,127.5L125,127.5ZM334.5,156.5L214.5,156.5C210.358,156.5 207,159.857 207,164C207,168.143 210.358,171.5 214.5,171.5L334.5,171.5C338.643,171.5 342,168.143 342,164C342,159.857 338.643,156.5 334.5,156.5ZM334.5,124.5L214.5,124.5C210.358,124.5 207,127.857 207,132C207,136.143 210.358,139.5 214.5,139.5L334.5,139.5C338.643,139.5 342,136.143 342,132C342,127.857 338.643,124.5 334.5,124.5ZM296.5,35.5L158.5,35.5C144.715,35.5 133.5,46.715 133.5,60.5C133.5,74.285 144.715,85.5 158.5,85.5L296.5,85.5C310.285,85.5 321.5,74.285 321.5,60.5C321.5,46.715 310.285,35.5 296.5,35.5ZM296.5,70.5L158.5,70.5C152.986,70.5 148.5,66.014 148.5,60.5C148.5,54.986 152.986,50.5 158.5,50.5L296.5,50.5C302.014,50.5 306.5,54.986 306.5,60.5C306.5,66.014 302.014,70.5 296.5,70.5Z" style="fill:white;fill-rule:nonzero;"/>
        </g>
    </g>
</svg>
