<svg xmlns="http://www.w3.org/2000/svg" fill-rule="evenodd" stroke-linecap="round" stroke-linejoin="round" stroke-miterlimit="1.5" clip-rule="evenodd" viewBox="0 0 102 102"><circle cx="1410.44" cy="1311.77" r="90.445" fill="none" stroke="#0cf" stroke-width="3.62" transform="translate(-728.724 -674.175) scale(.55282)"/><path fill="#fff" fill-rule="nonzero" d="M88.545 25.33a1.16 1.16 0 00-.862-.81l-7.115-1.606-1.607-7.115a1.16 1.16 0 00-1.953-.565l-8.182 8.184a33.11 33.11 0 00-17.105-4.76c-18.162 0-33.107 14.944-33.107 33.106S33.56 84.871 51.721 84.871s33.107-14.945 33.107-33.107a33.11 33.11 0 00-4.761-17.104l8.186-8.186c.298-.3.41-.738.292-1.144zm-6.04 26.438c-.003 16.886-13.898 30.78-30.784 30.78-16.887 0-30.784-13.897-30.784-30.784S34.834 20.98 51.721 20.98c5.41 0 10.727 1.427 15.41 4.135l-3.758 3.758a1.144 1.144 0 00-.09.116 25.583 25.583 0 00-11.605-2.784c-14.034 0-25.582 11.548-25.582 25.581 0 14.034 11.548 25.582 25.582 25.582 14.033 0 25.581-11.548 25.581-25.582 0-4.022-.948-7.988-2.768-11.575.042-.03.083-.063.121-.099l3.758-3.758a30.68 30.68 0 014.135 15.414zm-10.77-11.75a23.194 23.194 0 013.181 11.722c0 12.724-10.47 23.193-23.192 23.193C39 74.933 28.53 64.463 28.53 51.74S39 28.547 51.724 28.547c4.128 0 8.182 1.103 11.742 3.193l1.222 5.415-1.173 1.173a17.934 17.934 0 00-11.83-4.457c-9.836 0-17.93 8.093-17.93 17.93 0 9.835 8.094 17.928 17.93 17.928s17.93-8.093 17.93-17.929c0-4.353-1.586-8.56-4.458-11.83l1.173-1.173 5.406 1.22zM56.71 51.768v.019c0 2.748-2.262 5.01-5.01 5.01-2.75 0-5.011-2.262-5.011-5.01 0-2.749 2.262-5.01 5.01-5.01a5.01 5.01 0 012.626.742l-3.428 3.429a1.161 1.161 0 101.642 1.64l3.428-3.427c.485.783.742 1.686.743 2.607zm-.714-5.92a7.344 7.344 0 00-4.308-1.396c-4.028 0-7.343 3.315-7.343 7.344 0 4.028 3.315 7.343 7.343 7.343 4.029 0 7.344-3.315 7.344-7.343a7.344 7.344 0 00-1.395-4.306l5.876-5.876a15.6 15.6 0 013.776 10.175c0 8.555-7.04 15.596-15.596 15.596-8.556 0-15.596-7.04-15.596-15.596 0-8.556 7.04-15.597 15.596-15.597a15.6 15.6 0 0110.179 3.78l-5.876 5.876zm21.787-12.19l-4.357 4.357-.653-.147-.025-.006-5.815-1.31-1.465-6.489 11.696-11.698 1.305 5.775c.099.436.44.779.877.877l5.775 1.305-7.338 7.337z"/></svg>