<svg xmlns="http://www.w3.org/2000/svg" fill-rule="evenodd" stroke-linecap="round" stroke-linejoin="round" stroke-miterlimit="1.5" clip-rule="evenodd" viewBox="0 0 102 102"><circle cx="1410.44" cy="1311.77" r="90.445" fill="none" stroke="#0cf" stroke-width="3.62" transform="translate(-728.721 -674.175) scale(.55282)"/><path fill="#fff" fill-rule="nonzero" d="M81.015 50.002v-3.999c0-.458-.316-.86-.76-.97l-1.29-.32.69-1.15c.23-.392.168-.893-.15-1.219l-2.83-2.83a1.016 1.016 0 00-1.219-.149l-1.15.69-.32-1.29a1.002 1.002 0 00-.97-.76h-3.998c-.458 0-.86.316-.97.76l-.32 1.29-1.15-.69a1.016 1.016 0 00-1.22.15l-2.829 2.83c-.318.325-.38.826-.15 1.219l.44.73c-.92-.193-1.859-.29-2.8-.29-.34 0-.669.02-.999.04V26.008h-.24C57.3 22.73 48.623 21.01 40.025 21.01c-9.438 0-18.995 2.059-18.995 5.998v29.993c0 2.509 3.639 3.959 7.008 4.758 0 .08-.01.16-.01.24-.002 1.021.14 2.038.42 3.02-4.165.295-7.433 3.803-7.433 7.978 0 4.387 3.61 7.998 7.998 7.998h44.004c4.387 0 7.998-3.61 7.998-7.998s-3.61-7.998-7.998-7.998h-.88A13.877 13.877 0 0074.017 58c0-.26-.02-.51-.03-.76l.32-1.29 1.149.69c.393.23.894.168 1.22-.15l2.829-2.829c.318-.325.38-.827.15-1.22l-.69-1.149 1.29-.32c.444-.11.76-.512.76-.97zM40.025 23.01c10.997 0 16.996 2.64 16.996 3.999 0 1.36-5.999 3.999-16.996 3.999s-16.996-2.64-16.996-3.999c0-1.36 5.999-3.999 16.996-3.999zm-16.996 6.818c3.29 2.09 10.157 3.18 16.996 3.18 6.838 0 13.706-1.09 16.996-3.18v7.179c0 1.36-5.999 3.999-16.996 3.999s-16.996-2.64-16.996-4v-7.178zm0 9.998c3.29 2.09 10.157 3.179 16.996 3.179 6.838 0 13.706-1.09 16.996-3.18v4.52a14.038 14.038 0 00-8.728 6.078c-2.738.397-5.502.59-8.268.58-10.997 0-16.996-2.64-16.996-3.999v-7.178zm24.104 12.777c-.198.47-.372.95-.52 1.44a11.819 11.819 0 00-1.58-1.24c.72-.06 1.42-.12 2.1-.2zM28.258 59.75c-3.81-.94-5.229-2.13-5.229-2.75v-7.178c2.19 1.39 5.949 2.34 10.257 2.82a11.025 11.025 0 00-5.028 7.108zm44.759 7.248c3.29 0 5.998 2.708 5.998 5.999 0 3.29-2.708 5.998-5.998 5.998h-43.99c-3.29 0-5.998-2.708-5.998-5.998 0-3.291 2.708-5.999 5.999-5.999h.84c.336 0 .652-.17.84-.45.179-.284.209-.64.08-.95a8.745 8.745 0 01-.76-3.599c0-4.935 4.062-8.995 8.997-8.995a9.005 9.005 0 017.328 3.777.992.992 0 001.05.39c.395-.098.693-.427.75-.83.836-5.889 5.92-10.317 11.867-10.338.34 0 .67.02 1 .04v3.96c0 .457.315.86.76.97l1.29.319-.69 1.15c-.23.392-.169.894.15 1.22l2.829 2.829c.325.317.826.38 1.22.15l1.149-.69.32 1.29c.11.444.512.759.97.76h2.999a11.817 11.817 0 01-2.56 7.377 1 1 0 00.785 1.62h2.775zm5.998-17.775l-1.84.46a1.045 1.045 0 00-.69.59c-.117.294-.09.626.07.899l.98 1.62-1.73 1.73-1.619-.98a1.023 1.023 0 00-.9-.07 1.045 1.045 0 00-.59.69L72.237 56h-2.439l-.46-1.84a1.045 1.045 0 00-.59-.69 1.023 1.023 0 00-.9.07l-1.619.98-1.73-1.73.98-1.619c.162-.273.188-.605.07-.9a1.045 1.045 0 00-.69-.59l-1.839-.46v-2.439l1.84-.46c.307-.081.561-.298.69-.59a1.023 1.023 0 00-.07-.9l-.98-1.619 1.73-1.73 1.619.98c.273.162.605.188.9.07.291-.128.508-.382.59-.69l.46-1.84h2.439l.46 1.84c.08.308.298.562.59.69.294.118.627.092.9-.07l1.619-.98 1.73 1.73-.98 1.62a1.023 1.023 0 00-.07.9c.128.29.382.508.69.59l1.84.46v2.439z"/><path fill="#fff" fill-rule="nonzero" d="M25.033 73.001h1.999c0-1.097.903-1.999 2-1.999v-2c-2.194 0-3.999 1.805-3.999 3.999zm6.998-10.997a6.904 6.904 0 00.587 2.793l1.831-.8a4.92 4.92 0 01-.418-1.993c.003-2.741 2.257-4.996 4.998-4.999v-1.999c-3.837.004-6.993 3.16-6.998 6.998zm38.991-17.996c-2.194 0-3.999 1.806-3.999 3.999 0 2.194 1.805 3.999 3.999 3.999 2.193 0 3.999-1.805 3.999-3.999 0-2.193-1.806-3.999-3.999-3.999zm0 5.999c-1.097 0-2-.903-2-2a2.01 2.01 0 012-1.999 2.01 2.01 0 011.999 1.999c0 1.097-.903 2-1.999 2z"/></svg>